<?xml version="1.0" encoding="UTF-8"?>
<!DOCTYPE svg PUBLIC "-//W3C//DTD SVG 1.1//EN" "http://www.w3.org/Graphics/SVG/1.1/DTD/svg11.dtd">
<!-- Creator: CorelDRAW 2026 -->
<svg xmlns="http://www.w3.org/2000/svg" xml:space="preserve" width="19.233mm" height="13.515mm" version="1.1" style="shape-rendering:geometricPrecision; text-rendering:geometricPrecision; image-rendering:optimizeQuality; fill-rule:evenodd; clip-rule:evenodd"
viewBox="0 0 1851.02 1300.71"
 xmlns:xlink="http://www.w3.org/1999/xlink"
 xmlns:xodm="http://www.corel.com/coreldraw/odm/2003">
 <defs>
  <style type="text/css">
   <![CDATA[
    .fil0 {fill:#1A1A1A}
    .fil2 {fill:#FECD06}
    .fil1 {fill:white}
    .fil4 {fill:#FECD06;fill-rule:nonzero}
    .fil3 {fill:white;fill-rule:nonzero}
   ]]>
  </style>
 </defs>
 <g id="Layer_x0020_1">
  <metadata id="CorelCorpID_0Corel-Layer"/>
  <g id="_51781650464">
   <circle class="fil0" cx="1553.94" cy="1003.63" r="297.08"/>
   <circle class="fil0" cx="817.84" cy="649.88" r="649.89"/>
   <circle class="fil0" cx="131.59" cy="895.45" r="131.59"/>
   <circle class="fil0" cx="1518.34" cy="374.17" r="219.8"/>
   <g id="_2097111899600">
    <path class="fil1" d="M401.95 430.08c-0.86,3.92 -0.93,6.58 -2.05,11.07 -4.64,18.66 -7.81,39.05 -11.64,58.05 -2.84,14.19 -4.42,28.71 -7.15,43.17 -5.5,29.33 -8.63,62.78 -11.83,92.64 -2.22,20.8 -3.9,39.35 -4.91,60.29 -0.55,11.58 -1.14,20.95 -2.69,32.49 -1.79,13.37 -1.42,31.03 -2.05,45 -0.67,15.56 -0.74,31.27 -1.34,46.96 -1.29,33.68 0.5,68.55 1.34,102.31 0.41,16.63 2.34,35.61 3.76,52.36 1.06,12.28 2.34,25.69 3.72,37.93 0.17,1.5 0,4.98 1.52,5.72 0.08,0.04 2.28,19.3 2.55,20.97 6.02,38.3 16.69,76.35 35.77,110.3 1.54,2.69 4.13,9.18 7.05,9.49 0.91,0.1 2.57,-0.23 3.52,-0.37 6.71,-0.95 11.06,-1.23 17.8,-2.79 3.55,-0.82 9.71,-0.91 14.08,-1.67 17.95,-3.08 35.9,-7.62 53.75,-11.46 10.68,-2.3 28.81,-8.63 38.95,-12.61 10.21,-4.07 20.06,-9.41 29.88,-13.27 1.22,-0.49 5.06,-1.19 5.65,-2.05 0.49,-0.7 13.27,-6.51 15.19,-7.55 5.93,-3.23 10.12,-5.73 16.29,-8.73 8.21,-3.99 13.8,-7.11 21.38,-11.73 3.23,-1.97 3.79,-1.54 7.07,-4.41 1.07,-0.93 6.2,-2.67 9.04,-4.58 1.44,-0.95 2.83,-2 4.2,-3.04 2.36,-1.77 4.47,-1.85 6.39,-3.33 4.99,-3.88 3.46,-1.66 5.91,-3.31l6.29 -3.44c-0.46,-6.2 -3.04,-6.92 -6.6,-12.05 -2.95,-4.24 -4.68,-5.8 -7.43,-10.23 -2.6,-4.15 -6.18,-7.74 -9.2,-12.49 -3.25,-5.15 -7.17,-9.92 -9.55,-15.51 -1.37,-3.23 -5.91,-7.98 -8.13,-12.38 -1.69,-3.4 -2.11,-1.58 -3.51,-6.4 -0.84,-2.84 -2.25,-0.48 -2.45,-4.17 -0.06,-1.14 -6.96,-12.03 -7.44,-12.89 -9.38,-16.79 -17.58,-34.45 -24.99,-52.2 -0.91,-2.18 -1.64,-1.03 -2.4,-3.46 -0.59,-1.85 -4.79,-12.91 -5.69,-13.74 -1.93,-1.81 -2.15,-4.97 -3.04,-7.43 -2.69,-7.4 -6.25,-15.27 -9.12,-22.74 -1.6,-4.14 -1.66,-6.18 -3.82,-10.88 -1.77,-3.86 -3.59,-11.71 -5.07,-16.22 -2.04,-6.27 -3.25,-10.17 -4.74,-16.5 -0.72,-3.04 -1.83,-4.79 -2.28,-8.05 -0.38,-2.85 -1.28,-1.03 -2.2,-5.07 -4.44,-19.34 -9.06,-38.28 -13.64,-57.53 -1.7,-7.13 -1.62,-13.1 -3.2,-20.62 -1.38,-6.67 -2.14,-15.57 -4.11,-21.44 -0.48,-1.44 -5.32,-47.64 -5.44,-51.26 -0.15,-4.92 -1.64,-3.84 -1.62,-10.43 0.04,-6.66 -0.99,-12.84 -1.14,-19.72 -0.29,-9.09 -0.88,-18.64 -1.66,-27.7 -0.88,-10.04 -0.37,-23.7 -0.38,-33.93 -0.02,-9.18 -0.68,-63.55 0.86,-69.18 0.9,-3.27 0.29,-16.16 0.63,-20.93 0.44,-6.59 -0.34,-10.68 -0.23,-16.57 0.12,-6.16 2.59,-7.68 2.72,-15.18 0.1,-4.56 -0.17,-9.1 -0.21,-13.67l1.05 -12.79c5.83,-0.13 2.58,-0.62 8.63,1.63 15.75,6.16 34.18,12.49 48.89,20.38 6.53,3.51 12.98,7.81 19.81,10.74 4.49,1.92 12.06,8.73 17.05,10.88 5.76,2.47 5.73,5.36 11.65,7.76 3.43,1.41 11.48,8.13 15.16,10.82 4.62,3.38 9.46,7.2 14.08,10.72 2.4,1.84 3.46,3.32 6.56,5.51 5.99,4.23 11.85,10.18 17.89,15.03 6.12,4.91 12.36,10.82 18.58,16.04 12.63,10.6 25.18,23.79 36.45,35.69 0.78,0.82 2.42,2.45 3,3.39 0,4.9 -0.96,9.28 -2.24,13.14 -1.87,6.59 -1.93,14.08 -4.66,20.19 -0.95,2.17 -6.39,51.08 -6.96,58.87 -1.71,23.8 -0.91,49.28 -0.04,73.21 0.54,14.75 3.29,22.47 5.75,36.25 0.61,3.41 0.87,6.01 0.96,9.47 6.76,-0.15 6.24,-8.84 8.33,-13.7 2.68,-6.18 2.75,-6.18 4.02,-12.4 1.32,-5 4.89,-10.54 6.9,-16.12 3.27,-9.09 6.02,-16.01 10.02,-24.71 2.32,-5.02 2.51,-7.93 5.57,-13.45 2.59,-4.68 4.72,-11.62 7.17,-16.84 4.99,-10.59 10.04,-21.14 15.04,-31.71 1.56,-2.79 3.4,-3.12 3.4,-7.37 1.69,-0.13 3.08,-0.65 4.62,-1.03 0.08,3.14 2.2,7.51 3.56,10.27 0.78,1.62 0.68,1.58 2.6,2.03 0,3.88 -0.72,3.58 1.54,3.58 0.55,5.44 4.43,10.72 6.79,16.26 2.02,4.76 6.02,15.62 8.71,19.69 1.94,2.95 3.6,10.64 6.64,15.71 2.58,4.31 8.97,23.51 11.19,29.41 2.01,5.34 3.84,10.85 6.58,15.87 1.41,2.55 7.51,23.04 7.75,24.52 6.98,0 3.64,-0.43 5.22,-6.57 0.82,-3.2 1.72,-6.29 2.58,-9.72 3.5,-17.2 3.56,-36.76 5.32,-54.21 0.9,-8.33 1.79,-17 -0.09,-25.25 -0.23,-1 -0.1,-4.64 -0.37,-6.65 -0.68,-5.19 -0.63,-12.51 -1.05,-18.15 -0.47,-5.94 -0.96,-11.89 -1.52,-17.81 -0.41,-4.28 -1.44,-8.05 -1.78,-12.92 -0.48,-7.28 -2.69,-13.4 -3.62,-20.96 -0.74,-5.92 -2.75,-19.55 -4.8,-23.64 -0.54,-1.1 -0.71,-1.67 -1.01,-2.87 -0.42,-1.97 -0.44,-4.6 -1.07,-6.61 -1.02,-3.29 -2.96,-3.88 2.8,-9.74 8,-7.22 14.77,-13.53 22.45,-21.09 10.39,-10.22 22.05,-20.55 32.89,-30.43 5.13,-4.66 10.33,-8.27 15.63,-13.04 3.19,-2.87 6.94,-5.1 10.51,-8.12 5.23,-4.43 10.27,-7.43 15.74,-12.36 1.77,-1.61 15.08,-10.83 16.45,-11.7 7.07,-4.6 13.69,-8.3 20.61,-13.14 2.18,-1.52 3.66,-1.87 6.14,-3.39 4.72,-2.89 10.04,-5.32 15.1,-8.34 12.26,-7.27 21.4,-10.89 34.87,-15.38 4.8,-1.6 8.38,-3.86 13.26,-5.25 1.94,-0.52 4.97,-0.69 6.33,-1.34 1.03,11.94 1.98,20.82 2.04,33 0.02,5.25 1.93,8.96 2.22,15.27 0.59,13.19 -0.27,26.59 0.28,39.94 0.56,13.88 1.03,30 0.9,43.82 -0.08,9.49 -1.77,18.59 -1.82,28.61 -0.04,9.43 -0.73,18.34 -0.65,27.99 0.06,5.91 -1.41,6.59 -1.5,8.23 -0.13,2.26 0.35,2.26 -0.12,5.48 -0.45,3.18 -0.11,7.05 -0.57,11.01 -2.38,20.12 -3.63,39.2 -6.77,59.54 -1.31,8.5 -3.46,28.31 -6.18,35.23 -1.15,2.93 -3.54,19.54 -4.5,23.76 -4.54,20.11 -10.23,39.28 -15.04,59.26 -1.41,5.85 -4.04,14.39 -5.87,20.17 -1.92,6.12 -4.17,9.61 -5.63,15.87 -1.95,8.32 -5.72,13.27 -7.7,21.26 -1.35,5.44 -6.01,13.72 -7.98,20.09 -0.84,2.72 -1.11,6.11 -3.27,8.01 -1.15,0.99 -4.72,10.33 -5.32,11.89 -3.5,9.14 -9.32,19.14 -13.43,28.52 -1.77,4.06 -5.01,9.61 -7.15,13.61 -4.79,8.93 -9.56,17.7 -14.81,26.31 -3.1,5.07 -4.82,8.34 -8.46,13.18 -0.96,1.27 -1.74,3.96 -3.44,6.35 -6.54,9.33 -12.63,19.01 -19.45,28.13 -2.73,3.65 -4.11,6.98 -7.49,10.89 -2.4,2.77 -4.5,5.48 -6.74,8.36 -1.19,2.28 -1.02,2.77 -3.76,3.41 1.41,6.02 6.22,4.58 9.8,8.13 0.87,0.86 5.66,4.48 6.53,4.79 6.26,2.15 4.39,3.35 7.11,4.41 3.71,1.42 1.81,1.98 6.53,3.41 0.41,0.12 8.54,5.13 8.68,5.28 1.54,1.77 3.16,1.05 6.08,3.82 1.91,1.81 4.97,2.32 7.85,4.21 10.27,6.79 22.92,11.8 33.82,18.07 14.42,8.31 38.77,17.58 54.42,22.8 1.33,0.45 2.68,1.56 5.28,2.38 7,2.22 14.75,4.64 21.77,6.73 11.46,3.39 25.95,6.69 37.76,9.32 14.35,3.21 25.23,5.76 39.73,7.8 6.12,0.87 9.22,3.36 13.25,-1.96 0.68,-1.27 0.49,-1.31 1.03,-2.56 0.98,-2.23 0.32,-1.66 2.24,-1.85 0.28,-3.23 3.44,-7.07 4.96,-9.9 1.92,-3.6 8.77,-16.86 9.88,-20.87 0.9,-3.23 0.06,-2.93 1.87,-5.82 1.23,-1.99 2.47,-5.4 0.04,-6.79 -1.87,-1.06 -4.22,-1.06 -5.99,-1.71 -2.26,-0.85 -5.25,-2.28 -7.02,-3.74 -1.18,-0.98 -1.44,-1.37 -2.79,-2.34 -3.68,-2.69 -2.53,-3.35 -4.7,-5.53 -1.58,-1.6 -1.34,-0.28 -2.74,-2.89 -0.94,-1.75 -0.98,-1.64 -1.97,-3.16 -1.15,-1.73 -0.74,-1.44 -2.17,-2.96 -2.33,-2.53 -1.69,-4.58 -3.62,-7.13 -2.66,-3.49 -4.85,-8.91 -5.59,-9.79 -1.25,-1.5 -1.44,-1.09 -2.36,-3.27 -1.14,-2.69 -1.25,-5.11 -2.66,-7.6 -5.17,-9.12 -5.75,-12.38 -9.16,-22.61 -1.69,-5.13 -3.27,-11.35 -4.36,-16.65 -1.21,-5.78 -2.3,-12.03 -3.72,-17.8 -2.64,-10.57 -1.8,-5.87 -5.48,-12.45 -1.06,-1.88 -1.76,-3.46 -3.26,-4.94l-2.19 -2.92c-1.42,-2.32 -3.3,-3.59 -4.64,-6.12 -3.3,-6.2 -2.2,-1.69 -4.27,-5.99 -0.82,-1.71 -1.01,-1.66 -2.11,-3.02 -0.95,-1.19 -1.58,-1.79 -2.47,-3.16 -4.01,-6.24 -10.06,-11.91 -11.85,-19.41 -0.38,-1.56 -0.36,-2.6 -0.76,-4.37 -0.68,-2.98 -1.85,-5.46 -1.37,-8.44 0.39,-2.42 0.82,-1.92 1.35,-3.82 1.09,-3.94 0.59,-3.54 2.34,-8.42 1.81,-5 5.93,-7.87 10.29,-10.72 4.05,-2.65 10.72,-4.19 17.33,-4.19 0.88,-3.8 -0.3,-10.53 1.28,-14.09 1.42,-4.04 1.37,-14.74 1.8,-19.73 0.19,-2.28 1.48,-4.13 1.92,-7.76 0.72,-5.87 3.8,-25.13 5.51,-29.84 1.46,-4.01 1.33,-7.78 2.81,-12.43 1.27,-4.03 1.39,-7.68 2.81,-12.26 0.97,-3.14 1.85,-8.61 3.21,-10.97 1.07,-1.86 4.93,-15.75 5.4,-18.89 2.96,-1.09 3.27,-5.9 4.7,-9.39 2.42,-5.99 7.29,-15.26 7.97,-20.91 0,-1.6 -5.19,-5.87 -6.14,-7.19 -2.34,-3.24 -1.96,-7 -2.87,-10.45 -0.72,-2.73 -2.26,-3.61 -2.26,-6.96 0,-0.35 1.7,-3.16 2.28,-5.93 1.8,-8.54 4.2,-10.13 9.63,-16 0.35,-0.38 0.68,-0.78 0.97,-1.08l16.24 -11.44c5.57,-3.43 2.98,-2.95 7.45,-5.38 7.27,-3.96 13.41,-9.82 20.78,-13.54 1.16,-0.59 6.8,-7.81 8.14,-9.26 0.76,-0.82 1.14,-1.35 1.84,-2.26 3.41,-4.5 0.33,-15.49 -0.36,-20.53 -0.56,-4.11 0.64,-6.47 -0.6,-11.14l-0.74 -6.94c0.06,-5.36 -0.91,-2.69 -1.5,-5.68 -0.39,-2.02 0.27,-5.27 -0.19,-7.5l-0.9 -6.27c0.06,-6.1 -0.78,-8.72 -1.01,-14.35 -0.12,-2.87 -0.97,-3.57 -1.03,-6.65l-1 -13.88c-0.13,-2.96 -0.95,-2.8 -1.05,-6.12 -0.08,-3.41 -0.57,-4.32 -0.9,-6.78 -0.32,-2.24 0.19,-4.71 -0.32,-6.86 -0.63,-2.69 -1.73,-2.13 -1.87,-5.83l-0.88 -6.8c-0.38,-2.38 -0.68,-4.62 -0.66,-7.04 0.04,-6.86 -3.04,-17.74 -4.12,-25.61 -0.93,-6.82 -5.06,-28.86 -5.08,-32.32 -0.02,-4.37 -1,-3.21 -1.48,-6.2 -0.43,-2.69 -0.38,-4.31 -0.55,-7.13 -0.23,-3.74 -1.07,-0.93 -1.54,-4.1 -0.19,-1.3 0.12,-2.47 -0.37,-3.73 -2.32,-6.2 -0.76,-3.74 -2.36,-10.45 -0.64,-2.67 -1.19,-2.18 -1.41,-6.27 -0.29,-3.04 -0.99,-6.06 -0.82,-9.14 7.83,0.04 8.48,0.82 15.67,2.42 3.31,0.74 4.81,0 7.66,-1.6 0.63,-15.65 3.8,-29.98 4.1,-46.23 0.35,-18.73 0.75,-34.45 -0.55,-53.27 -1.12,-16.26 -0.49,-31.56 -2.24,-47.99 -0.72,-6.75 -1.09,-12.16 -2.17,-18.99 -0.9,-5.71 -0.7,-10.33 -2.24,-16.1 -2.16,-8.07 -2.88,-19.02 -4.91,-28.01 -2.15,-9.47 -3.8,-18.65 -6.02,-28.09 -1.05,-4.44 -2.12,-8.1 -3.1,-12.61 -0.64,-3.02 -2.28,-6.86 -3.16,-10.47 -1.62,-6.56 -3.84,-12.53 -6.06,-18.88 -1.54,-4.43 0.49,-5.46 -3.58,-6.94 -4.25,-1.46 -8.09,-2.85 -13.55,-2.85 -22.53,-0.1 -33.27,-0.93 -55.84,4.31 -11.99,2.78 -20.98,4.24 -33.08,8.1 -36.04,11.54 -72.59,28.65 -102.64,51.81 -18.19,14.02 -34.02,27.12 -50.24,43.49 -7.64,7.76 -16.13,17.62 -23.39,25.96 -16.02,18.4 -31.01,39.73 -45.08,59.67 -9.4,13.31 -18.7,29.16 -27.08,43.37 -4.62,7.83 -8.43,15.59 -13.43,23.29 -7,10.59 -11.73,22.4 -17.27,33.76l-0.74 1.52c-0.96,1.93 -0.28,1.77 -4.08,0.78 -0.56,-0.13 -3.08,-6.71 -3.39,-7.33 -17.43,-32.72 -39.43,-67.49 -60.31,-98.14 -37.94,-55.67 -80.6,-106.15 -138.1,-142.49 -55.32,-34.28 -108.38,-51.3 -173.87,-47.19 -11.23,0.7 -10.76,3.32 -14.03,13.99 -3.99,12.93 -7.58,26.65 -11.15,39.79 -1.3,4.81 -2.06,13.18 -3.18,18.73 -2.7,13.51 -5.3,24.52 -7.23,38.4 -2.68,19.24 -4.27,34.83 -5.26,54.27 -0.66,12.97 -1.93,24.19 -2.01,37.48 -0.08,11.19 -0.27,84.58 6.61,88.34 5.51,3.02 22.36,-9.26 17.36,3.45l-0.71 1.86 -0.02 -0.02 0.03 0.02z"/>
    <path class="fil1" d="M1202.24 724.71c1.71,-0.38 4.16,-1.46 6.08,-2.11 5.17,-1.71 10.57,-4.66 16.08,-5.44 2.18,-0.31 2.26,0.18 3.96,-0.64 -0.91,3.92 -1.83,6.88 -4.47,9.35 -0.93,0.88 -0.74,0.54 -1.33,1.75 -1.24,2.57 -0.37,1.67 -2.25,3.9 -2.56,3.02 -3.92,7.93 -5.95,11.48 -1.71,2.77 -1.64,1.5 -3.46,5.53 -3.35,7.43 -12.14,23.74 -13.31,30.47 -3.86,0.06 -0.02,0.88 -2.98,6.81 -1.96,3.94 -2.3,3.12 -2.65,8.06 -3.99,0.06 0.06,1.5 -2.71,7.05 -2.7,5.44 -2.3,7.43 -3.62,12.89 -0.38,1.56 -0.9,1.83 -2.38,2.1 -0.09,5.79 -1.82,7.94 -2.87,13.76 -1.37,7.64 -2.73,14.05 -4.52,21.6 -1.75,7.45 -2.98,19.59 -3.44,27.43 -0.31,5.3 -1.87,4.74 -1.18,10.82 0.23,2.06 -1.06,6.02 -1.25,8.73 -0.76,10.8 -1.42,21.64 -2.12,32.45 0,2.26 0.19,10.55 0.84,11.97 1.05,2.38 1.01,-1.27 1.24,3.37 0.13,2.2 2.62,14.39 -0.02,14.39 -4.38,0 -6.43,-4.39 -9.57,-6.32 -2.05,-1.24 -1.54,-1.22 -3.12,-2.51 -3.16,-2.63 -1.5,-0.61 -5.55,-4.7 -1.86,-1.85 -4.43,-3.8 -7.92,-3.88 0.16,1.81 1.06,3.35 1.88,4.79 1.07,1.86 1.54,3.23 3.76,3.42 0.06,2.76 1.89,3.48 4.4,7.38l6.82 9.07c3.53,3.49 5.76,8.36 8.69,12.32 7.82,10.53 3.8,13.65 6.38,23.88 0.4,1.66 1.01,2.17 1.62,4.52 1.22,4.79 1.79,9.62 3.8,14.13 1.24,2.83 1.22,7 2.36,9.94 0.95,2.51 1.75,3.04 3.68,8.61 0.68,1.97 1.08,2.5 1.92,4.23 1.44,2.96 2.26,5.63 3.74,8.56 0.8,1.58 1.13,2.2 1.77,3.86 0.27,0.7 0.51,1.44 0.97,2.1 2.38,3.36 1.5,0.63 3.44,5.81 0.82,2.2 1.34,2.05 2.57,3.57 1.62,1.94 0.66,2.32 1.88,4.28 1.13,1.86 7,9.44 9.02,9.44 4.27,0 33.99,-5.68 36.69,-6.88 1.73,-0.78 1.07,-0.78 2.76,-1.33 5.58,-1.81 12.03,-2.15 17.45,-4.6 2.24,-1.01 4.43,-1.03 6.65,-2.07 2.95,-1.39 3.25,-1.03 6.88,-0.19 1.66,0.39 3.16,0.63 4.6,1.56 2.16,1.41 1.32,2.22 3.75,2.91 5.77,1.85 13.04,6.6 19.01,9.39 7.8,3.65 12.61,6.69 21.19,9.92 4.48,1.69 16.18,6.54 20.23,7.25 2.38,0.43 0.64,0.8 3.33,1.76 5.5,1.94 13.08,4.54 18.61,5.38 1.12,2.36 -0.9,0.99 3.44,1.96 3.96,0.9 4.99,0.88 8.84,2.4 4.39,1.71 8.87,1.56 14,3.42 8.01,2.9 16.77,3.33 25.23,5.67 6.44,1.77 20.18,3.18 27.49,4.33 9.57,1.5 18.16,2.7 27.78,3.88 4.01,0.48 3.25,1.24 8.48,1.4 3.5,0.13 9.3,1.23 13.23,1.61 7.55,0.69 14.85,0.86 22.61,1.62 13.04,1.28 24.6,0.12 37.47,1.09 9.12,0.7 12.15,0.7 21.16,0.02 10.68,-0.8 18.23,-0.21 29.43,-1.89 10.53,-1.6 30.39,-4.12 39.82,-8.32 7.3,-3.25 10.97,-3.23 17.64,-8.54 2.61,-2.07 2.83,-0.74 6.33,-4.45 1.41,-1.48 1.86,-1.92 3.78,-2.69 0,-13.78 -0.68,-29.33 0.99,-41.54 0.55,-3.96 1.08,-4.76 1.08,-9.71 -0.02,-3.99 -0.15,-6.86 0.57,-10.21l1.47 -14.41c0.14,-3.72 1.8,-4.28 2.07,-8.69 0.15,-2.75 0.55,-2.05 1.03,-4.6 0.59,-3.12 1.17,-5.77 1.76,-9.01 0.29,-1.66 0.15,-3.06 0.48,-4.64 0.32,-1.52 0.96,-2.76 1.35,-4.28 0.36,-1.35 0.41,-2.83 0.82,-4.31 1.88,-6.84 4.62,-14.11 6.33,-20.82 0.78,-3.06 1.88,-4.85 3.38,-7.39 1.37,-2.26 2.76,-4.68 2.76,-7.97 -2.88,0.06 -4.83,1.25 -6.51,2.71l-16.27 11.89c-1.25,0.66 -2.2,0.68 -3.31,1.29 -1.23,0.67 -1.39,1.26 -2.48,2.12 -1.81,1.41 -4.32,1.67 -6.22,3.02 -1.85,1.31 -0.25,0.86 -2.65,1.97 -1.25,0.58 -1.92,0.7 -3.18,1.42 -2.17,1.22 -3.99,2.47 -7.02,2.72 -0.22,2.03 0.37,1 -1.19,1.9 -3.2,1.56 -5.63,1.24 -10.04,3.46 -2.4,1.21 -3.21,0.68 -5.07,2.64 -0.9,0.95 -13.71,4.49 -16.05,5.27 -12.64,4.16 -28.85,9.01 -41.6,11.25 -13.7,2.42 -26.75,3.9 -40.62,6.86 -5.55,1.18 -12.47,0.95 -18.44,1.41 -6.41,0.5 -9.77,0.62 -16.06,1.67 -6.7,1.13 -14.52,-0.17 -22.12,0.68 -9.94,1.13 -26.73,0.44 -37.04,0.31 -19.19,-0.27 -38.59,-1.03 -57.73,-1.13 0.42,-5.23 3.29,-4.33 7.46,-5.87 1.92,-0.7 2.58,-1.69 3.96,-2.69 1.31,-0.93 3.08,-1.52 4.68,-2.49l12.58 -7.41c1.58,-0.97 2.89,-1.62 3.1,-4.07 -1.52,-0.72 -4.99,-1.46 -6.73,-1.99 -2.43,-0.73 -4.45,-1.45 -6.82,-2.4 -2.96,-1.16 -3.31,-2.12 -5.61,-3.6 -2.55,-1.64 -6.53,-2.6 -8.44,-4.88 -0.88,-1.03 -1.05,-1.67 -1.94,-2.65 -2.18,-2.38 -3.88,-0.68 -5.6,-3.63 -1.52,-2.57 -0.84,-3.25 -3.7,-5.51 -6.26,-4.95 -3.74,-3.04 -6.26,-7.05 -1,-1.6 -0.8,-0.5 -2.24,-2.38 -2.4,-3.29 -2.58,-4.87 -5.76,-7.95 -1.79,-1.73 -1.46,-4.52 -4.19,-7.83 -1.64,-1.97 -9.54,-16.61 -10.96,-20.18 -1.5,-3.75 -6.12,-14.36 -8.3,-17.55 -3.94,-5.74 -18,-49.61 -19.37,-57.33 -1.92,-10.64 -5.52,-17.44 -6.4,-28.42 -0.44,-5.48 -1.24,-9.84 -1.62,-15.63l-0.08 -1.12c-0.13,-1.71 -0.64,-3.08 -0.97,-4.66 -0.34,-1.56 -0.76,-3.92 -0.94,-5.22 -0.84,-6.46 -0.64,-33.65 -0.64,-40.87 0,-3.3 1.56,-3.63 1.56,-7.14 0.02,-8.07 3.08,-32.57 5.38,-40.21 0.84,-2.76 0.4,-6.02 1.2,-8.01l2.6 -6.65c2.19,-1.05 10.35,-1.39 13.82,-1.54 4.26,-0.21 9.41,-1.37 13.46,-1.91 9.03,-0.8 14.93,0.95 24.5,-0.8 13.54,-2.49 26.27,0.78 39.7,0.59 16.04,-0.24 34.96,1.69 50.93,3.88 20.43,2.78 42.87,8.07 62.6,13.97 6.18,1.85 10,2.95 15.92,5.18 13.82,5.25 20.15,7.66 32.65,14.9 3.73,2.16 9,4.32 11.58,7.85 1.4,1.91 2.65,1.16 5.31,4.01 3.14,3.35 6.88,5.15 8.27,9.26 1.31,3.94 3.71,0.36 4.12,6.1 0.5,0 1.01,0 1.54,0 0,3.88 1.81,2.43 3.18,7.58 1.85,6.86 1.89,4.2 3.46,7.3l0.95 4.68c0.68,4.17 0.83,11.03 2.64,14.79 5.28,-1.23 4.6,-5.4 7.04,-8.32 2.75,-3.29 3.12,-4.58 6.65,-8.73l14.13 -21.74c1.31,-2.4 1.11,-1.28 2.43,-2.69l4.08 -7.72 2.04 0c0,-3.25 0.49,-2.13 2.32,-4.35 2.34,-2.8 7.28,-12.06 10.12,-15.49 1.31,-1.58 1.17,-0.78 2.2,-2.93 0.66,-1.39 -0.08,-0.37 0.88,-1.67l5.48 -7.83c1.44,-2.18 2.69,-4.31 4.22,-6.55 4.23,-6.26 1.56,-2.36 4.64,-5.61l1.37 -2.2c0.5,-0.8 0.1,-0.1 0.62,-0.91 0.76,-1.17 1.08,-2.45 2.22,-3.41 1.77,-1.48 1.48,0.1 2.42,-2.71 2.13,-6.45 1.31,-2.34 4.1,-6.14 0.9,-1.23 1.11,-2.26 2.28,-3.35 2.59,-2.44 1.58,-4.16 3.99,-6.26 2.36,-2.05 7.4,-11.64 9.49,-14.08 0.93,-1.11 0.13,0.22 1.25,-1.32 1.03,-1.42 0.35,-0.7 0.86,-1.7 0.78,-1.54 -0.12,-0.37 1.35,-1.73 2.76,-2.59 2.59,-2.55 4.26,-5.99 1.21,-2.45 2.11,-4.93 5.13,-5.63 0,-9.1 -7.13,-13.97 -12.94,-19.86l-4.74 -3.46c-1.23,-0.76 -1.19,-1.06 -2.34,-1.78l-5.4 -2.8c-3.37,-1.44 -5.85,-2.85 -9.96,-2.85l0 -1.54c-2.28,-0.06 -16.68,-4.7 -23.06,-5.65 -2.43,-0.36 -2.06,-0.78 -4.32,-1.31 -9.03,-2.15 -12.62,-2.98 -21.99,-3.37 -9.07,-0.38 -18.19,-3.04 -27.25,-2.2 -2.05,0.19 -13.38,-1.1 -16.69,-1.21 -6.96,-0.25 -36.86,-2.72 -40.82,-0.86 -5.38,2.55 -14.79,0.55 -21.42,2.09 -3.23,0.76 -12.38,0.08 -18.01,0.9 -4.54,0.68 -9.22,0.66 -14.35,1.41 -16.52,2.45 -33.92,4.68 -50.11,8.65 -5.55,1.37 -10.88,2.05 -16.83,3.56 -20.39,5.21 -38.97,10.28 -58.6,17.88 -4.17,1.62 -6.26,1.24 -10.25,3.33 -2.45,1.37 -5.95,2.01 -8.44,2.83 -4.79,1.58 -12.06,6.37 -16.31,6.74 -1.69,-3.5 0.06,-9.93 1.93,-13.43 1.71,-3.16 1.69,-6.86 3.04,-10.27 0.73,-1.9 0.76,-1.15 1.16,-3.44 0.66,-3.58 1.33,-3.52 2.34,-6.37 0.88,-2.49 0.72,-4.99 1.56,-7.66 0.78,-2.45 1.9,-3.9 2.71,-6.01 0.44,-1.16 0.86,-2.36 1.11,-3.6 1.52,-7.18 -10.84,3.23 -12.36,4.15 -0.38,0.23 -0.93,0.47 -1.33,0.72 -0.13,0.08 -0.48,0.31 -0.62,0.4 -0.08,0.06 -0.2,0.18 -0.28,0.24 -0.08,0.08 -0.19,0.17 -0.27,0.25 -2.05,1.92 -6.35,3.74 -8.11,5.74 -3.85,4.38 -1.36,1.56 -4.89,3.81 -2.17,1.37 -1.91,3.22 -4.75,4.47 -2.17,0.96 -3.29,2.15 -5.34,3.38 -1.67,0.99 -2.91,3.23 -4.31,4.91 -1.96,2.36 -3.18,1.17 -5.33,3.37 -1.84,1.88 -1.86,3.16 -4.54,4.68 -4.76,2.71 -5.89,4.74 -9.52,8.42l-13.08 14.08c-5.76,5.08 -9.04,6.47 -13.46,13.7 -2.18,3.57 -7.02,5.38 -8.69,9.24 -1.39,3.19 -6.1,7.02 -8.8,9.14 -2.04,1.62 -2.82,3.24 -3.86,5.36 -0.65,1.37 -3.6,3.49 -4.79,4.45 -1.52,1.21 -0.82,0.59 -1.92,2.18 -1.37,1.96 -2.54,1.52 -4.6,2.57 -0.1,0.06 -0.23,0.13 -0.34,0.19l-0.88 0.64c-1.01,0.76 -1.58,1.12 -2.7,1.92 -1.84,1.26 -3.18,2.49 -5.13,3.58 -1.46,0.82 -1.94,0.68 -3.33,1.27 -2.38,0.99 -0.9,0.47 -2.3,2.3 -1.19,1.58 -3.65,2.24 -5.32,3.39 -1.97,1.33 -3.33,3.4 -5.07,4.16 -2.42,1.05 -0.9,-0.22 -3.1,1.52 -3.62,2.84 -5.75,1.52 -5.75,8.08l-0.02 0.02 0.01 -0.14z"/>
    <path class="fil1" d="M1462.1 258.2l71.12 24.19 0 204.1 -71.12 23.8 0 -252.09zm5.74 132.58c1.15,-0.1 0.91,-0.97 0.93,-1.79 0.21,-0.14 0.25,-0.18 0.39,-0.39 0.21,-0.29 0.21,-0.74 0.06,-1.03 -0.39,-0.68 -1.46,-0.89 -2.2,-0.24 -0.53,0.47 -0.61,1.12 -0.15,1.56 0.33,0.34 0.27,0.06 0.25,0.68 0,0.34 -0.06,0.63 0.08,0.86 0.1,0.2 0.35,0.38 0.66,0.34l0 0 -0.02 0.02zm4.34 -11.1l-0.02 1.14 -4.01 -0.21c-1.39,-0.08 -2.61,0.9 -2.63,2.1 -0.02,1.25 1.16,2.24 2.63,2.22l3.96 -0.02 -0.12 6.63c-0.02,0.66 -0.31,1.13 -0.78,1.54 -0.25,0.21 -0.72,0.42 -1.07,0.48l-4.56 0.59c-0.64,0.08 -1.15,-0.17 -1.56,-0.47 -0.39,-0.27 -0.57,-0.79 -0.55,-1.43l0.27 -12.98c0.02,-0.63 0.22,-1.15 0.61,-1.44 0.41,-0.29 0.93,-0.57 1.56,-0.51l4.5 0.43c0.33,0.04 0.55,0.13 0.76,0.25 0.17,0.1 0.4,0.25 0.55,0.41 0.29,0.37 0.48,0.65 0.46,1.26l0 0 0 0.02zm5.6 4.5l-9.56 -0.04c-1.96,0 -2.34,-2.1 -0.68,-2.65 0.2,-0.06 0.45,-0.1 0.7,-0.08l9.6 0.4c0.72,0.04 1.22,0.55 1.22,1.21 0,0.38 -0.21,0.74 -0.52,0.95 -0.06,0.04 -0.13,0.08 -0.2,0.1 -0.15,0.06 -0.33,0.1 -0.54,0.1l-0.02 0zm29.28 -94.83l17 4.96 0 47.26 7.02 3.2 -7.02 10.55 0 13.02 7 5.91 -13.74 18.1c2.55,1.66 4.52,3.76 5.91,6.35 1.54,2.89 2.31,6.08 2.31,9.67l0 46.43c0,3.57 -0.75,7.02 -2.31,10.33 -1.57,3.38 -3.82,6.36 -6.84,8.99 -3.08,2.68 -6.86,4.66 -11.39,5.97l-31.65 9.09 0 -45.75 -11.27 15.28 0 -16.35 11.27 -17.85 0 -34.85 20.42 -0.26 2.71 -4.66 -9.61 -5.44 -13.68 -0.23 0 -99.72 19.91 5.88 0.47 0.66 13.45 21.5 0 -18.03 0 0.02 0.05 -0.03zm-0.24 44.39l-13.29 -20.19 0 27.15 5.59 -10.47 7.7 3.51 0 0 0 0zm-12.84 133.65c1.22,-0.25 2.36,-0.5 3.35,-0.74 4.45,-1.07 7.33,-2.21 8.79,-3.45 1.67,-1.41 2.5,-4.31 2.5,-8.79l0 -40.59c0,-3.84 -0.63,-6.37 -1.86,-7.58l-12.78 16.86 0 44.27 0 0.01z"/>
    <polygon class="fil2" points="1502.88,339.38 1521.34,347.4 1509.49,364.72 1522.29,375.19 1477.54,432.65 1506.24,382.09 1486.66,370.53 "/>
    <path class="fil2" d="M1455.92 258.2l-23.44 8.88 0 19.05c0.15,0.25 0.29,0.51 0.42,0.74 5.95,10.47 8.74,21.93 8.74,33.93l0 129.18c0,12 -2.81,23.44 -8.74,33.9 -0.13,0.25 -0.29,0.5 -0.42,0.75l0 15.66 23.44 9.98 0 -252.09 0 0 0 0.02z"/>
    <path class="fil3" d="M1553.2 510.46c-4.15,0 -6.37,-1.83 -6.68,-5.5 -0.04,-0.55 0.25,-0.82 0.86,-0.82l3.37 0c0.43,0 0.72,0.25 0.89,0.78 0.19,0.7 0.71,1.03 1.58,1.03l5.69 0c0.64,0 1.1,-0.1 1.37,-0.27 0.27,-0.19 0.4,-0.53 0.4,-0.99 0,-0.49 -0.12,-0.83 -0.37,-1.02 -0.25,-0.19 -0.66,-0.33 -1.25,-0.35l-6.39 -0.45c-2.17,-0.15 -3.72,-0.64 -4.64,-1.48 -0.91,-0.82 -1.39,-2.12 -1.39,-3.9 0,-3.84 2.24,-5.76 6.71,-5.76l5.32 0c4.15,0 6.37,1.83 6.68,5.5 0.04,0.54 -0.25,0.82 -0.86,0.82l-3.37 0c-0.43,0 -0.72,-0.25 -0.88,-0.78 -0.2,-0.68 -0.72,-1.03 -1.59,-1.03l-5.25 0c-0.64,0 -1.1,0.1 -1.37,0.27 -0.27,0.19 -0.41,0.53 -0.41,0.99 0,0.49 0.13,0.82 0.38,1.02 0.25,0.19 0.66,0.31 1.25,0.35l6.39 0.45c2.15,0.13 3.71,0.64 4.62,1.48 0.93,0.86 1.41,2.14 1.41,3.92 0,3.84 -2.24,5.76 -6.71,5.76l-5.76 0 0 -0.02zm21.33 0c-0.56,0 -0.84,-0.27 -0.84,-0.8l0 -13.43 -5.4 0c-0.57,0 -0.86,-0.28 -0.86,-0.8l0 -2.95c0,-0.53 0.29,-0.8 0.86,-0.8l15.89 0c0.56,0 0.86,0.27 0.86,0.8l0 2.95c0,0.52 -0.29,0.8 -0.86,0.8l-5.4 0 0 13.43c0,0.53 -0.3,0.8 -0.86,0.8l-3.38 0 -0.02 0zm19.58 0c-2.18,0 -3.86,-0.59 -4.99,-1.75 -1.15,-1.17 -1.71,-2.73 -1.71,-4.7l0 -11.5c0,-0.53 0.29,-0.8 0.86,-0.8l3.33 0c0.57,0 0.87,0.27 0.87,0.8l0 11.67c0,0.72 0.13,1.21 0.4,1.44 0.27,0.23 0.7,0.35 1.27,0.35l6.58 0c0.57,0 0.98,-0.12 1.27,-0.35 0.27,-0.23 0.4,-0.7 0.4,-1.44l0 -11.67c0,-0.53 0.3,-0.8 0.85,-0.8l3.33 0c0.57,0 0.86,0.27 0.86,0.8l0 11.5c0,1.96 -0.57,3.52 -1.71,4.7 -1.15,1.16 -2.81,1.75 -4.99,1.75l-6.58 0 -0.02 0zm17.83 0c-0.57,0 -0.86,-0.27 -0.86,-0.8l0 -17.17c0,-0.53 0.29,-0.8 0.86,-0.8l12.08 0c4.45,0 6.69,2.34 6.69,7.04l0 4.79c0,4.62 -2.22,6.94 -6.69,6.94l-12.08 0zm4.19 -4.47l7.28 0c0.76,0 1.32,-0.15 1.73,-0.48 0.38,-0.34 0.61,-1.02 0.61,-2.03l0 -4.7c0,-1.05 -0.2,-1.73 -0.57,-2.07 -0.37,-0.33 -0.95,-0.48 -1.75,-0.48l-7.28 0 0 9.78 -0.02 -0.02zm18.63 4.47c-0.56,0 -0.86,-0.27 -0.86,-0.8l0 -17.17c0,-0.53 0.29,-0.8 0.86,-0.8l3.32 0c0.56,0 0.84,0.27 0.84,0.8l0 17.17c0,0.53 -0.28,0.8 -0.84,0.8l-3.32 0zm14.08 0c-2.18,0 -3.86,-0.59 -4.99,-1.75 -1.15,-1.17 -1.71,-2.73 -1.71,-4.7l0 -5.83c0,-1.98 0.57,-3.56 1.71,-4.74 1.14,-1.17 2.81,-1.75 4.99,-1.75l7.44 0c2.18,0 3.86,0.58 4.99,1.75 1.13,1.17 1.71,2.75 1.71,4.74l0 5.83c0,1.96 -0.57,3.52 -1.71,4.7 -1.15,1.16 -2.81,1.75 -4.99,1.75l-7.44 0zm0 -4.52l7.44 0c0.57,0 0.98,-0.12 1.27,-0.35 0.27,-0.23 0.4,-0.7 0.4,-1.44l0 -6.14c0,-0.76 -0.13,-1.25 -0.38,-1.48 -0.25,-0.21 -0.68,-0.33 -1.29,-0.33l-7.44 0c-0.61,0 -1.04,0.12 -1.29,0.33 -0.25,0.21 -0.39,0.72 -0.39,1.48l0 6.14c0,0.72 0.14,1.21 0.41,1.44 0.27,0.23 0.7,0.35 1.27,0.35z"/>
    <path class="fil4" d="M1429.78 317.63l0 135.72c0,10.45 -2.43,19.92 -7.29,28.48 -4.87,8.59 -11.87,15.42 -20.99,20.53 -9.2,5.1 -20.18,7.66 -33.04,7.66l-80.97 0 0 -249.01 80.97 0c12.86,0 23.84,2.55 33.04,7.66 9.14,5.1 16.14,11.92 20.99,20.46 4.87,8.59 7.29,18.09 7.29,28.54l0 -0.04zm-91.24 150.3c3.25,0.12 6.22,0.17 8.89,0.17 12.04,0 20.06,-1.25 24.15,-3.69 4.75,-2.78 7.11,-10.33 7.11,-22.72l0 -112.47c0,-12.4 -2.38,-20 -7.11,-22.78 -4.09,-2.44 -12.11,-3.63 -24.15,-3.63 -2.68,0 -5.64,0.06 -8.89,0.17l0 164.9 0 0 0 0.04z"/>
    <path class="fil2" d="M1618.82 486.01l-14.86 -53.56c-5.18,3.59 -10.15,6.94 -14.85,9.94l0 43.19 -44.13 0 0 -203.49 63.95 0c11.22,0 20.76,2.09 28.59,6.26 7.83,4.18 13.88,9.75 18.08,16.73 4.22,7.04 6.29,14.79 6.29,23.31l0 60.34c-5.88,5.28 -12.55,10.82 -19.97,16.5l22.55 80.8 -45.65 0 -0.02 -0.02zm-29.73 -169.56l0 80.24c10.82,-6.36 21.48,-14.41 31.99,-24.14l0 -21.87c0,-8.34 -0.16,-14.83 -0.51,-19.49 -0.35,-4.6 -1.48,-8 -3.43,-10.14 -2.01,-2.12 -5.19,-3.48 -9.6,-4.07 -3.69,-0.33 -8.56,-0.53 -14.72,-0.53l-3.74 0 0 0 0 0z"/>
   </g>
  </g>
 </g>
</svg>
