<?xml version="1.0" encoding="UTF-8"?>
<!DOCTYPE svg PUBLIC "-//W3C//DTD SVG 1.1//EN" "http://www.w3.org/Graphics/SVG/1.1/DTD/svg11.dtd">
<!-- Creator: CorelDRAW 2026 -->
<svg xmlns="http://www.w3.org/2000/svg" xml:space="preserve" width="18.3639mm" height="13.4806mm" version="1.1" style="shape-rendering:geometricPrecision; text-rendering:geometricPrecision; image-rendering:optimizeQuality; fill-rule:evenodd; clip-rule:evenodd"
viewBox="0 0 466.61 342.53"
 xmlns:xlink="http://www.w3.org/1999/xlink"
 xmlns:xodm="http://www.corel.com/coreldraw/odm/2003">
 <defs>
  <style type="text/css">
   <![CDATA[
    .fil0 {fill:#1A1A1A}
    .fil2 {fill:#FECD06}
    .fil1 {fill:white}
    .fil4 {fill:#FECD06;fill-rule:nonzero}
    .fil3 {fill:white;fill-rule:nonzero}
   ]]>
  </style>
 </defs>
 <g id="Layer_x0020_1">
  <metadata id="CorelCorpID_0Corel-Layer"/>
  <g id="_1427080906800">
   <g>
    <circle class="fil0" cx="78.43" cy="78.43" r="78.43"/>
    <circle class="fil0" cx="250.88" cy="184.75" r="157.78"/>
    <circle class="fil0" cx="397.44" cy="268.54" r="69.17"/>
    <circle class="fil0" cx="87.83" cy="244.62" r="58.03"/>
    <circle class="fil0" cx="399.27" cy="81.25" r="58.03"/>
   </g>
   <g id="_2097111899600">
    <path class="fil1" d="M224.14 51.7l67.26 22.88 0 193.02 -67.26 22.51 0 -238.41zm5.42 125.39c1.09,-0.09 0.87,-0.92 0.88,-1.69 0.2,-0.13 0.24,-0.17 0.37,-0.37 0.2,-0.28 0.2,-0.7 0.06,-0.98 -0.37,-0.65 -1.38,-0.83 -2.08,-0.22 -0.5,0.44 -0.57,1.05 -0.15,1.47 0.31,0.32 0.26,0.06 0.24,0.65 0,0.31 -0.06,0.59 0.07,0.81 0.09,0.18 0.33,0.35 0.63,0.31l0 0 -0.02 0.02zm4.11 -10.49l-0.02 1.07 -3.8 -0.2c-1.31,-0.07 -2.47,0.85 -2.49,1.99 -0.02,1.18 1.11,2.12 2.49,2.1l3.74 -0.02 -0.11 6.27c-0.02,0.63 -0.29,1.07 -0.74,1.46 -0.24,0.2 -0.68,0.4 -1.01,0.46l-4.31 0.55c-0.61,0.07 -1.09,-0.17 -1.47,-0.44 -0.37,-0.26 -0.54,-0.76 -0.52,-1.36l0.26 -12.28c0.02,-0.59 0.2,-1.09 0.57,-1.36 0.39,-0.28 0.88,-0.53 1.47,-0.48l4.26 0.4c0.32,0.04 0.52,0.13 0.72,0.24 0.17,0.09 0.39,0.24 0.52,0.39 0.28,0.35 0.46,0.63 0.44,1.2l0 0 0 0.02zm5.29 4.26l-9.03 -0.04c-1.86,0 -2.21,-1.99 -0.65,-2.51 0.19,-0.06 0.42,-0.09 0.66,-0.07l9.07 0.39c0.68,0.04 1.16,0.52 1.16,1.14 0,0.37 -0.2,0.7 -0.5,0.9 -0.06,0.04 -0.13,0.07 -0.18,0.09 -0.15,0.05 -0.32,0.09 -0.52,0.09l-0.02 0zm27.69 -89.68l16.07 4.68 0 44.7 6.64 3.02 -6.64 9.97 0 12.31 6.62 5.59 -13 17.12c2.41,1.57 4.28,3.56 5.58,6.01 1.46,2.73 2.19,5.75 2.19,9.14l0 43.91c0,3.37 -0.72,6.64 -2.19,9.77 -1.47,3.19 -3.61,6.01 -6.47,8.5 -2.91,2.53 -6.49,4.41 -10.77,5.64l-29.94 8.59 0 -43.27 -10.66 14.46 0 -15.47 10.66 -16.89 0 -32.96 19.32 -0.24 2.56 -4.41 -9.09 -5.14 -12.94 -0.22 0 -94.31 18.84 5.57 0.44 0.63 12.72 20.33 0 -17.05 0 0.02 0.04 -0.02zm-0.22 41.97l-12.57 -19.1 0 25.68 5.29 -9.9 7.28 3.32 0 0 0 0zm-12.15 126.4c1.16,-0.24 2.23,-0.48 3.17,-0.7 4.2,-1.01 6.93,-2.1 8.31,-3.26 1.59,-1.33 2.36,-4.07 2.36,-8.31l0 -38.38c0,-3.63 -0.59,-6.03 -1.75,-7.17l-12.09 15.95 0 41.86 0 0.02z"/>
    <polygon class="fil2" points="262.71,128.48 280.16,136.06 268.96,152.45 281.07,162.35 238.74,216.69 265.88,168.87 247.37,157.94 "/>
    <path class="fil2" d="M218.3 51.7l-22.18 8.41 0 18.01c0.15,0.24 0.28,0.48 0.4,0.7 5.62,9.9 8.26,20.74 8.26,32.09l0 122.16c0,11.36 -2.65,22.18 -8.26,32.06 -0.13,0.24 -0.27,0.48 -0.4,0.72l0 14.8 22.18 9.44 0 -238.41 0 0 0 0.02z"/>
    <path class="fil3" d="M310.3 290.28c-3.93,0 -6.03,-1.73 -6.32,-5.2 -0.04,-0.52 0.24,-0.77 0.81,-0.77l3.19 0c0.4,0 0.68,0.24 0.83,0.74 0.18,0.66 0.68,0.98 1.49,0.98l5.38 0c0.61,0 1.03,-0.09 1.29,-0.26 0.26,-0.18 0.39,-0.5 0.39,-0.94 0,-0.46 -0.11,-0.77 -0.35,-0.96 -0.24,-0.19 -0.63,-0.32 -1.18,-0.33l-6.05 -0.42c-2.05,-0.15 -3.52,-0.61 -4.39,-1.4 -0.87,-0.77 -1.31,-2.01 -1.31,-3.69 0,-3.63 2.12,-5.46 6.34,-5.46l5.03 0c3.93,0 6.03,1.73 6.32,5.2 0.04,0.52 -0.24,0.77 -0.81,0.77l-3.19 0c-0.4,0 -0.68,-0.24 -0.83,-0.74 -0.19,-0.64 -0.68,-0.98 -1.49,-0.98l-4.98 0c-0.61,0 -1.03,0.09 -1.29,0.26 -0.26,0.19 -0.39,0.5 -0.39,0.94 0,0.46 0.11,0.77 0.35,0.96 0.24,0.18 0.63,0.29 1.18,0.33l6.05 0.42c2.03,0.13 3.5,0.61 4.37,1.4 0.89,0.81 1.33,2.03 1.33,3.7 0,3.63 -2.12,5.46 -6.34,5.46l-5.44 0 0 -0.02zm20.17 0c-0.53,0 -0.79,-0.26 -0.79,-0.75l0 -12.7 -5.11 0c-0.53,0 -0.81,-0.26 -0.81,-0.75l0 -2.78c0,-0.5 0.28,-0.75 0.81,-0.75l15.02 0c0.53,0 0.81,0.26 0.81,0.75l0 2.78c0,0.5 -0.28,0.75 -0.81,0.75l-5.1 0 0 12.7c0,0.5 -0.28,0.75 -0.81,0.75l-3.19 0 -0.02 0zm18.51 0c-2.06,0 -3.65,-0.55 -4.72,-1.66 -1.09,-1.11 -1.62,-2.58 -1.62,-4.44l0 -10.87c0,-0.5 0.28,-0.75 0.81,-0.75l3.15 0c0.54,0 0.81,0.26 0.81,0.75l0 11.04c0,0.68 0.13,1.14 0.39,1.36 0.26,0.22 0.66,0.33 1.2,0.33l6.23 0c0.53,0 0.92,-0.11 1.2,-0.33 0.26,-0.22 0.39,-0.66 0.39,-1.36l0 -11.04c0,-0.5 0.27,-0.75 0.79,-0.75l3.15 0c0.53,0 0.81,0.26 0.81,0.75l0 10.87c0,1.86 -0.53,3.34 -1.62,4.44 -1.09,1.11 -2.66,1.66 -4.72,1.66l-6.23 0 -0.02 0zm16.87 0c-0.53,0 -0.81,-0.26 -0.81,-0.75l0 -16.24c0,-0.5 0.27,-0.75 0.81,-0.75l11.43 0c4.2,0 6.32,2.21 6.32,6.65l0 4.53c0,4.37 -2.1,6.56 -6.32,6.56l-11.43 0zm3.96 -4.22l6.88 0c0.72,0 1.25,-0.15 1.64,-0.46 0.37,-0.31 0.57,-0.96 0.57,-1.92l0 -4.44c0,-1 -0.19,-1.64 -0.53,-1.95 -0.35,-0.31 -0.9,-0.46 -1.66,-0.46l-6.88 0 0 9.25 -0.02 -0.02zm17.62 4.22c-0.54,0 -0.81,-0.26 -0.81,-0.75l0 -16.24c0,-0.5 0.28,-0.75 0.81,-0.75l3.13 0c0.53,0 0.79,0.26 0.79,0.75l0 16.24c0,0.5 -0.26,0.75 -0.79,0.75l-3.13 0zm13.31 0c-2.07,0 -3.65,-0.55 -4.72,-1.66 -1.09,-1.11 -1.62,-2.58 -1.62,-4.44l0 -5.51c0,-1.88 0.53,-3.37 1.62,-4.48 1.07,-1.11 2.65,-1.66 4.72,-1.66l7.04 0c2.07,0 3.65,0.55 4.72,1.66 1.07,1.11 1.62,2.6 1.62,4.48l0 5.51c0,1.86 -0.53,3.34 -1.62,4.44 -1.09,1.11 -2.66,1.66 -4.72,1.66l-7.04 0zm0 -4.28l7.04 0c0.54,0 0.92,-0.11 1.2,-0.33 0.26,-0.22 0.39,-0.66 0.39,-1.36l0 -5.81c0,-0.72 -0.13,-1.18 -0.37,-1.4 -0.24,-0.2 -0.64,-0.31 -1.22,-0.31l-7.04 0c-0.57,0 -0.98,0.11 -1.22,0.31 -0.24,0.2 -0.37,0.68 -0.37,1.4l0 5.81c0,0.68 0.13,1.14 0.39,1.36 0.26,0.22 0.66,0.33 1.2,0.33z"/>
    <path class="fil4" d="M193.58 107.91l0 128.36c0,9.88 -2.3,18.84 -6.89,26.93 -4.61,8.13 -11.23,14.58 -19.85,19.41 -8.7,4.83 -19.08,7.25 -31.25,7.25l-76.58 0 0 -235.5 76.58 0c12.17,0 22.54,2.42 31.25,7.24 8.65,4.83 15.26,11.28 19.85,19.36 4.61,8.13 6.89,17.11 6.89,26.99l0 -0.04zm-86.29 142.14c3.08,0.11 5.88,0.17 8.41,0.17 11.39,0 18.97,-1.18 22.84,-3.48 4.5,-2.63 6.73,-9.77 6.73,-21.49l0 -106.36c0,-11.72 -2.25,-18.91 -6.73,-21.55 -3.87,-2.3 -11.45,-3.43 -22.84,-3.43 -2.53,0 -5.33,0.06 -8.41,0.17l0 155.95 0 0 0 0.04z"/>
    <path class="fil2" d="M372.35 267.16l-14.05 -50.66c-4.9,3.39 -9.6,6.56 -14.05,9.4l0 40.85 -41.74 0 0 -192.45 60.48 0c10.62,0 19.63,1.97 27.04,5.92 7.41,3.94 13.13,9.22 17.11,15.81 3.98,6.65 5.96,13.99 5.96,22.05l0 57.07c-5.57,5 -11.87,10.23 -18.89,15.6l21.33 76.42 -43.17 0 -0.02 -0.02zm-28.11 -160.36l0 75.87c10.23,-6.01 20.31,-13.62 30.25,-22.82l0 -20.68c0,-7.89 -0.15,-14.03 -0.48,-18.43 -0.33,-4.35 -1.4,-7.56 -3.24,-9.59 -1.9,-2.01 -4.9,-3.3 -9.07,-3.85 -3.48,-0.32 -8.09,-0.5 -13.92,-0.5l-3.54 0 0 0 -0 0z"/>
   </g>
  </g>
 </g>
</svg>
