<?xml version="1.0" encoding="UTF-8"?>
<!DOCTYPE svg PUBLIC "-//W3C//DTD SVG 1.1//EN" "http://www.w3.org/Graphics/SVG/1.1/DTD/svg11.dtd">
<!-- Creator: CorelDRAW -->
<svg xmlns="http://www.w3.org/2000/svg" xml:space="preserve" width="16.2104mm" height="12.1838mm" version="1.1" style="shape-rendering:geometricPrecision; text-rendering:geometricPrecision; image-rendering:optimizeQuality; fill-rule:evenodd; clip-rule:evenodd"
viewBox="0 0 1251.8 940.85"
 xmlns:xlink="http://www.w3.org/1999/xlink"
 xmlns:xodm="http://www.corel.com/coreldraw/odm/2003">
 <defs>
  <style type="text/css">
   <![CDATA[
    .fil1 {fill:#FECD06}
    .fil0 {fill:white}
    .fil3 {fill:#FECD06;fill-rule:nonzero}
    .fil2 {fill:white;fill-rule:nonzero}
   ]]>
  </style>
 </defs>
 <g id="Layer_x0020_1">
  <metadata id="CorelCorpID_0Corel-Layer"/>
  <g id="_2097111899600">
   <path class="fil0" d="M40.34 271.83c-0.79,3.58 -0.86,6.02 -1.87,10.12 -4.25,17.06 -7.15,35.7 -10.64,53.07 -2.6,12.97 -4.05,26.25 -6.54,39.47 -5.03,26.82 -7.89,57.41 -10.82,84.7 -2.03,19.01 -3.56,35.98 -4.49,55.12 -0.5,10.59 -1.03,19.16 -2.46,29.71 -1.64,12.22 -1.3,28.37 -1.87,41.15 -0.63,14.22 -0.68,28.58 -1.23,42.93 -1.18,30.8 0.46,62.67 1.23,93.54 0.37,15.2 2.14,32.56 3.44,47.87 0.97,11.23 2.14,23.48 3.41,34.68 0.16,1.37 0,4.54 1.39,5.22 0.07,0.04 2.08,17.65 2.33,19.17 5.51,35.02 15.26,69.81 32.7,100.85 1.41,2.46 3.78,8.39 6.45,8.68 0.84,0.08 2.36,-0.22 3.23,-0.34 6.13,-0.87 10.11,-1.13 16.27,-2.55 3.24,-0.75 8.87,-0.84 12.87,-1.54 16.42,-2.81 32.83,-6.97 49.15,-10.48 9.77,-2.1 26.34,-7.89 35.61,-11.53 9.34,-3.72 18.34,-8.6 27.32,-12.13 1.12,-0.45 4.63,-1.09 5.17,-1.88 0.45,-0.64 12.14,-5.95 13.88,-6.9 5.41,-2.96 9.24,-5.24 14.9,-7.98 7.51,-3.65 12.62,-6.51 19.55,-10.73 2.96,-1.8 3.47,-1.41 6.46,-4.02 0.98,-0.86 5.67,-2.44 8.27,-4.19 1.32,-0.87 2.59,-1.83 3.83,-2.78 2.15,-1.62 4.09,-1.69 5.85,-3.04 4.56,-3.54 3.16,-1.51 5.4,-3.03l5.76 -3.14c-0.42,-5.67 -2.78,-6.32 -6.04,-11.01 -2.7,-3.88 -4.28,-5.31 -6.8,-9.35 -2.37,-3.8 -5.64,-7.08 -8.41,-11.43 -2.97,-4.7 -6.56,-9.07 -8.73,-14.19 -1.24,-2.96 -5.4,-7.29 -7.43,-11.31 -1.55,-3.1 -1.92,-1.44 -3.21,-5.85 -0.76,-2.6 -2.06,-0.45 -2.24,-3.81 -0.05,-1.03 -6.36,-11 -6.81,-11.78 -8.57,-15.36 -16.08,-31.48 -22.85,-47.72 -0.83,-1.99 -1.49,-0.94 -2.19,-3.17 -0.54,-1.69 -4.39,-11.79 -5.2,-12.56 -1.77,-1.65 -1.96,-4.54 -2.78,-6.79 -2.46,-6.77 -5.71,-13.97 -8.34,-20.8 -1.47,-3.78 -1.52,-5.65 -3.5,-9.95 -1.62,-3.53 -3.27,-10.71 -4.63,-14.83 -1.87,-5.74 -2.97,-9.3 -4.32,-15.07 -0.66,-2.78 -1.68,-4.39 -2.08,-7.36 -0.36,-2.6 -1.18,-0.95 -2.02,-4.63 -4.06,-17.68 -8.29,-35 -12.48,-52.61 -1.54,-6.52 -1.47,-11.97 -2.92,-18.85 -1.27,-6.09 -1.96,-14.24 -3.76,-19.61 -0.45,-1.31 -4.86,-43.55 -4.97,-46.87 -0.14,-4.49 -1.5,-3.51 -1.47,-9.54 0.03,-6.09 -0.91,-11.75 -1.03,-18.03 -0.27,-8.31 -0.8,-17.04 -1.51,-25.32 -0.8,-9.18 -0.34,-21.68 -0.36,-31.03 -0.02,-8.39 -0.62,-58.1 0.79,-63.24 0.82,-3 0.27,-14.77 0.57,-19.14 0.41,-6.02 -0.3,-9.77 -0.22,-15.14 0.11,-5.64 2.37,-7.03 2.49,-13.88 0.09,-4.17 -0.15,-8.32 -0.19,-12.49l0.97 -11.69c5.33,-0.12 2.35,-0.57 7.89,1.48 14.4,5.63 31.24,11.42 44.7,18.64 5.97,3.2 11.87,7.14 18.1,9.81 4.12,1.77 11.03,7.98 15.6,9.95 5.27,2.26 5.24,4.9 10.66,7.1 3.14,1.28 10.49,7.43 13.86,9.88 4.22,3.09 8.64,6.58 12.87,9.81 2.19,1.68 3.17,3.03 6.01,5.04 5.48,3.87 10.83,9.3 16.36,13.74 5.6,4.49 11.31,9.89 16.99,14.66 11.54,9.7 23.03,21.76 33.32,32.63 0.72,0.75 2.22,2.25 2.75,3.1 0,4.47 -0.87,8.49 -2.05,12.02 -1.71,6.02 -1.76,12.87 -4.25,18.46 -0.87,1.98 -5.85,46.69 -6.36,53.82 -1.57,21.76 -0.83,45.05 -0.04,66.94 0.5,13.49 3.01,20.55 5.26,33.14 0.56,3.12 0.79,5.49 0.88,8.66 6.18,-0.14 5.7,-8.09 7.62,-12.53 2.44,-5.65 2.52,-5.65 3.68,-11.34 1.21,-4.58 4.47,-9.65 6.31,-14.74 2.99,-8.32 5.51,-14.65 9.16,-22.6 2.12,-4.59 2.29,-7.25 5.1,-12.29 2.37,-4.28 4.31,-10.63 6.56,-15.4 4.56,-9.68 9.17,-19.34 13.75,-29 1.43,-2.55 3.1,-2.85 3.1,-6.73 1.55,-0.12 2.81,-0.61 4.22,-0.95 0.07,2.87 2.01,6.87 3.26,9.39 0.71,1.48 0.63,1.44 2.37,1.85 0,3.55 -0.66,3.28 1.41,3.28 0.5,4.97 4.05,9.8 6.2,14.87 1.85,4.35 5.51,14.27 7.97,17.99 1.78,2.7 3.3,9.74 6.08,14.37 2.36,3.94 8.19,21.49 10.22,26.89 1.84,4.88 3.51,9.91 6.02,14.5 1.29,2.34 6.87,21.07 7.08,22.42 6.38,0 3.33,-0.39 4.77,-6 0.75,-2.93 1.57,-5.76 2.36,-8.9 3.2,-15.71 3.26,-33.61 4.86,-49.56 0.82,-7.62 1.64,-15.54 -0.07,-23.1 -0.22,-0.9 -0.09,-4.24 -0.34,-6.07 -0.63,-4.74 -0.57,-11.44 -0.97,-16.59 -0.42,-5.44 -0.87,-10.87 -1.39,-16.29 -0.37,-3.92 -1.32,-7.36 -1.62,-11.81 -0.45,-6.65 -2.46,-12.25 -3.31,-19.16 -0.68,-5.42 -2.52,-17.88 -4.39,-21.61 -0.49,-1 -0.66,-1.54 -0.93,-2.63 -0.39,-1.8 -0.41,-4.2 -0.98,-6.04 -0.93,-3.01 -2.71,-3.54 2.56,-8.91 7.31,-6.59 13.51,-12.36 20.53,-19.28 9.5,-9.34 20.15,-18.78 30.06,-27.82 4.69,-4.26 9.44,-7.56 14.29,-11.92 2.9,-2.62 6.35,-4.67 9.61,-7.43 4.77,-4.05 9.39,-6.8 14.38,-11.3 1.62,-1.47 13.8,-9.89 15.04,-10.7 6.47,-4.21 12.51,-7.59 18.83,-12.01 2,-1.39 3.35,-1.71 5.61,-3.1 4.32,-2.64 9.18,-4.86 13.81,-7.63 11.2,-6.65 19.57,-9.96 31.88,-14.06 4.39,-1.46 7.67,-3.52 12.12,-4.79 1.78,-0.49 4.54,-0.64 5.79,-1.24 0.94,10.93 1.81,19.04 1.87,30.18 0.02,4.81 1.76,8.19 2.03,13.97 0.53,12.05 -0.25,24.31 0.25,36.51 0.52,12.7 0.95,27.43 0.82,40.06 -0.07,8.68 -1.62,17 -1.65,26.16 -0.04,8.63 -0.68,16.77 -0.61,25.59 0.05,5.4 -1.28,6.02 -1.37,7.52 -0.12,2.06 0.32,2.06 -0.11,5 -0.41,2.9 -0.09,6.45 -0.52,10.07 -2.17,18.39 -3.31,35.84 -6.19,54.43 -1.19,7.77 -3.17,25.89 -5.64,32.22 -1.05,2.67 -3.24,17.86 -4.12,21.72 -4.15,18.39 -9.36,35.92 -13.76,54.18 -1.28,5.34 -3.69,13.15 -5.37,18.45 -1.76,5.59 -3.81,8.78 -5.15,14.5 -1.78,7.61 -5.22,12.14 -7.03,19.44 -1.23,4.97 -5.49,12.55 -7.29,18.36 -0.76,2.49 -1.02,5.6 -3,7.32 -1.05,0.91 -4.31,9.44 -4.86,10.87 -3.2,8.36 -8.52,17.5 -12.28,26.07 -1.62,3.71 -4.58,8.79 -6.54,12.44 -4.38,8.16 -8.73,16.19 -13.54,24.06 -2.83,4.63 -4.4,7.62 -7.74,12.05 -0.87,1.16 -1.58,3.61 -3.14,5.81 -5.98,8.52 -11.54,17.37 -17.78,25.71 -2.49,3.34 -3.76,6.38 -6.84,9.96 -2.19,2.53 -4.12,5.01 -6.17,7.64 -1.09,2.08 -0.93,2.53 -3.44,3.12 1.28,5.51 5.68,4.19 8.97,7.43 0.78,0.79 5.17,4.1 5.97,4.39 5.72,1.96 4.01,3.07 6.5,4.03 3.38,1.3 1.66,1.81 5.97,3.11 0.37,0.11 7.81,4.69 7.93,4.83 1.41,1.62 2.89,0.96 5.56,3.49 1.75,1.66 4.54,2.12 7.18,3.85 9.39,6.2 20.96,10.78 30.92,16.52 13.19,7.59 35.44,16.07 49.75,20.85 1.21,0.41 2.44,1.42 4.83,2.17 6.39,2.03 13.48,4.24 19.9,6.15 10.48,3.1 23.72,6.12 34.53,8.53 13.11,2.93 23.06,5.25 36.32,7.13 5.59,0.78 8.42,3.07 12.12,-1.8 0.63,-1.16 0.45,-1.2 0.94,-2.34 0.9,-2.05 0.29,-1.51 2.05,-1.69 0.25,-2.96 3.14,-6.47 4.53,-9.05 1.76,-3.3 8.02,-15.42 9.03,-19.09 0.82,-2.96 0.05,-2.67 1.71,-5.33 1.13,-1.81 2.26,-4.93 0.04,-6.2 -1.71,-0.97 -3.85,-0.97 -5.48,-1.57 -2.06,-0.76 -4.79,-2.08 -6.41,-3.42 -1.09,-0.9 -1.32,-1.25 -2.55,-2.14 -3.37,-2.46 -2.32,-3.07 -4.3,-5.06 -1.44,-1.47 -1.23,-0.25 -2.51,-2.64 -0.86,-1.61 -0.89,-1.5 -1.8,-2.89 -1.05,-1.58 -0.68,-1.32 -1.98,-2.71 -2.14,-2.32 -1.55,-4.19 -3.31,-6.52 -2.42,-3.19 -4.44,-8.15 -5.12,-8.95 -1.14,-1.37 -1.31,-1 -2.15,-2.99 -1.03,-2.46 -1.14,-4.67 -2.42,-6.95 -4.72,-8.34 -5.25,-11.32 -8.37,-20.67 -1.55,-4.69 -3,-10.37 -3.99,-15.22 -1.1,-5.3 -2.11,-11 -3.41,-16.27 -2.41,-9.66 -1.64,-5.37 -5,-11.39 -0.97,-1.71 -1.61,-3.15 -2.98,-4.51l-2.02 -2.67c-1.3,-2.12 -3.01,-3.27 -4.24,-5.59 -3.01,-5.67 -2.01,-1.55 -3.9,-5.48 -0.75,-1.57 -0.93,-1.51 -1.92,-2.76 -0.88,-1.08 -1.44,-1.64 -2.27,-2.89 -3.67,-5.7 -9.19,-10.88 -10.83,-17.75 -0.33,-1.43 -0.32,-2.37 -0.69,-3.99 -0.62,-2.73 -1.69,-4.99 -1.24,-7.71 0.36,-2.21 0.75,-1.77 1.23,-3.49 1,-3.61 0.53,-3.24 2.14,-7.7 1.66,-4.58 5.42,-7.2 9.41,-9.81 3.71,-2.42 9.81,-3.83 15.85,-3.83 0.8,-3.47 -0.27,-9.62 1.17,-12.88 1.31,-3.69 1.25,-13.48 1.64,-18.04 0.18,-2.08 1.35,-3.78 1.76,-7.09 0.66,-5.37 3.47,-22.97 5.04,-27.29 1.34,-3.67 1.21,-7.1 2.56,-11.37 1.17,-3.69 1.27,-7.02 2.57,-11.21 0.89,-2.86 1.69,-7.88 2.94,-10.03 0.98,-1.69 4.5,-14.4 4.93,-17.27 2.71,-1 2.99,-5.4 4.29,-8.59 2.21,-5.48 6.66,-13.96 7.29,-19.13 0,-1.46 -4.74,-5.36 -5.61,-6.57 -2.14,-2.96 -1.8,-6.4 -2.62,-9.55 -0.66,-2.49 -2.07,-3.3 -2.07,-6.36 0,-0.32 1.55,-2.89 2.08,-5.42 1.64,-7.8 3.83,-9.27 8.8,-14.63 0.32,-0.34 0.63,-0.71 0.89,-0.98l14.85 -10.46c5.1,-3.14 2.73,-2.69 6.8,-4.92 6.65,-3.61 12.26,-8.98 19,-12.39 1.07,-0.53 6.22,-7.14 7.45,-8.46 0.69,-0.75 1.03,-1.23 1.68,-2.06 3.12,-4.12 0.3,-14.17 -0.32,-18.76 -0.51,-3.76 0.59,-5.92 -0.55,-10.2l-0.68 -6.34c0.05,-4.9 -0.83,-2.46 -1.37,-5.19 -0.36,-1.85 0.25,-4.83 -0.18,-6.86l-0.83 -5.74c0.05,-5.58 -0.71,-7.97 -0.93,-13.12 -0.11,-2.62 -0.89,-3.26 -0.94,-6.08l-0.91 -12.69c-0.12,-2.71 -0.87,-2.56 -0.97,-5.6 -0.07,-3.11 -0.51,-3.95 -0.82,-6.2 -0.29,-2.05 0.18,-4.29 -0.29,-6.27 -0.56,-2.46 -1.58,-1.94 -1.71,-5.33l-0.8 -6.22c-0.34,-2.18 -0.63,-4.22 -0.61,-6.43 0.04,-6.28 -2.78,-16.22 -3.76,-23.42 -0.85,-6.23 -4.63,-26.39 -4.65,-29.55 -0.02,-3.99 -0.91,-2.94 -1.35,-5.67 -0.39,-2.46 -0.34,-3.94 -0.5,-6.52 -0.21,-3.42 -0.98,-0.86 -1.41,-3.75 -0.18,-1.2 0.11,-2.26 -0.34,-3.42 -2.12,-5.67 -0.69,-3.42 -2.15,-9.55 -0.59,-2.44 -1.09,-2 -1.28,-5.74 -0.27,-2.78 -0.91,-5.54 -0.75,-8.36 7.16,0.04 7.75,0.75 14.32,2.22 3.03,0.67 4.4,0 7,-1.47 0.57,-14.31 3.47,-27.41 3.75,-42.27 0.32,-17.12 0.69,-31.49 -0.5,-48.7 -1.01,-14.86 -0.44,-28.85 -2.05,-43.87 -0.66,-6.17 -1,-11.12 -1.98,-17.36 -0.82,-5.22 -0.64,-9.44 -2.05,-14.72 -1.98,-7.38 -2.64,-17.4 -4.49,-25.61 -1.96,-8.66 -3.47,-17.05 -5.51,-25.68 -0.97,-4.06 -1.95,-7.41 -2.83,-11.53 -0.59,-2.76 -2.08,-6.28 -2.89,-9.58 -1.47,-6 -3.51,-11.46 -5.54,-17.27 -1.41,-4.05 0.45,-4.99 -3.27,-6.34 -3.88,-1.34 -7.4,-2.6 -12.39,-2.6 -20.6,-0.09 -30.42,-0.86 -51.06,3.94 -10.96,2.55 -19.17,3.88 -30.24,7.41 -32.95,10.55 -66.36,26.19 -93.85,47.37 -16.63,12.81 -31.1,24.79 -45.92,39.75 -6.98,7.1 -14.75,16.11 -21.38,23.74 -14.65,16.82 -28.36,36.32 -41.22,54.55 -8.59,12.17 -17.09,26.66 -24.75,39.65 -4.22,7.16 -7.71,14.26 -12.28,21.3 -6.4,9.68 -10.73,20.47 -15.79,30.87l-0.68 1.39c-0.87,1.76 -0.25,1.62 -3.72,0.71 -0.52,-0.12 -2.82,-6.13 -3.1,-6.7 -15.94,-29.92 -36.05,-61.72 -55.14,-89.72 -34.68,-50.9 -73.69,-97.05 -126.26,-130.27 -50.58,-31.34 -99.08,-46.9 -158.96,-43.14 -10.27,0.64 -9.84,3.03 -12.83,12.8 -3.65,11.81 -6.93,24.36 -10.19,36.37 -1.2,4.4 -1.88,12.05 -2.9,17.13 -2.48,12.35 -4.85,22.42 -6.61,35.11 -2.45,17.59 -3.91,31.85 -4.81,49.62 -0.61,11.87 -1.77,22.12 -1.84,34.27 -0.07,10.22 -0.25,77.32 6.04,80.76 5.04,2.76 20.44,-8.46 15.88,3.16l-0.66 1.69 -0.02 -0.02 0.03 0.02z"/>
   <path class="fil0" d="M772.02 541.21c1.57,-0.36 3.8,-1.34 5.56,-1.92 4.73,-1.57 9.66,-4.25 14.7,-4.97 2,-0.29 2.07,0.16 3.62,-0.59 -0.84,3.58 -1.68,6.29 -4.09,8.56 -0.86,0.8 -0.67,0.5 -1.21,1.61 -1.14,2.35 -0.34,1.53 -2.06,3.56 -2.34,2.76 -3.58,7.25 -5.44,10.49 -1.57,2.53 -1.5,1.37 -3.16,5.07 -3.07,6.79 -11.1,21.71 -12.17,27.85 -3.53,0.05 -0.02,0.8 -2.73,6.23 -1.8,3.6 -2.1,2.86 -2.42,7.36 -3.65,0.05 0.05,1.37 -2.48,6.46 -2.48,4.97 -2.1,6.79 -3.31,11.78 -0.34,1.43 -0.82,1.68 -2.17,1.92 -0.08,5.3 -1.66,7.26 -2.63,12.59 -1.24,6.98 -2.49,12.85 -4.13,19.75 -1.61,6.8 -2.73,17.91 -3.14,25.07 -0.29,4.84 -1.71,4.32 -1.09,9.88 0.22,1.89 -0.97,5.51 -1.14,7.98 -0.69,9.88 -1.3,19.78 -1.94,29.68 0,2.06 0.18,9.64 0.76,10.93 0.97,2.18 0.93,-1.16 1.14,3.09 0.11,2.01 2.39,13.15 -0.02,13.15 -4.01,0 -5.88,-4.01 -8.75,-5.78 -1.87,-1.14 -1.41,-1.12 -2.85,-2.3 -2.89,-2.4 -1.37,-0.55 -5.08,-4.29 -1.69,-1.69 -4.04,-3.47 -7.23,-3.54 0.14,1.66 0.96,3.07 1.71,4.39 0.98,1.69 1.41,2.96 3.44,3.12 0.05,2.53 1.73,3.19 4.03,6.75l6.24 8.29c3.22,3.19 5.25,7.64 7.95,11.27 7.14,9.62 3.47,12.47 5.82,21.83 0.38,1.51 0.93,1.98 1.48,4.13 1.12,4.39 1.64,8.8 3.47,12.93 1.14,2.58 1.12,6.39 2.15,9.08 0.87,2.3 1.61,2.78 3.37,7.88 0.63,1.8 0.98,2.29 1.75,3.87 1.32,2.71 2.07,5.15 3.42,7.82 0.73,1.44 1.03,2.02 1.62,3.53 0.25,0.64 0.46,1.32 0.9,1.92 2.17,3.07 1.37,0.57 3.14,5.31 0.75,2.02 1.23,1.87 2.36,3.26 1.47,1.78 0.6,2.12 1.71,3.92 1.03,1.69 6.4,8.63 8.26,8.63 3.9,0 31.07,-5.19 33.54,-6.29 1.58,-0.72 0.98,-0.72 2.53,-1.21 5.1,-1.66 11,-1.96 15.95,-4.21 2.05,-0.93 4.05,-0.94 6.08,-1.89 2.7,-1.27 2.97,-0.94 6.29,-0.18 1.51,0.36 2.88,0.57 4.2,1.43 1.98,1.28 1.21,2.03 3.44,2.66 5.27,1.69 11.92,6.04 17.37,8.59 7.13,3.34 11.53,6.12 19.37,9.07 4.1,1.55 14.8,5.98 18.5,6.63 2.17,0.39 0.59,0.73 3.04,1.61 5.03,1.78 11.96,4.15 17.02,4.92 1.02,2.15 -0.82,0.91 3.14,1.8 3.62,0.82 4.56,0.8 8.09,2.19 4.01,1.57 8.11,1.42 12.8,3.12 7.33,2.65 15.34,3.04 23.08,5.18 5.88,1.62 18.44,2.9 25.13,3.96 8.75,1.37 16.6,2.47 25.39,3.54 3.68,0.44 2.98,1.14 7.75,1.28 3.2,0.11 8.5,1.12 12.1,1.46 6.9,0.64 13.58,0.79 20.67,1.48 11.92,1.17 22.49,0.11 34.25,1 8.34,0.64 11.1,0.64 19.35,0.02 9.77,-0.73 16.66,-0.19 26.91,-1.73 9.62,-1.46 27.78,-3.76 36.41,-7.61 6.66,-2.97 10.03,-2.96 16.12,-7.81 2.39,-1.88 2.59,-0.67 5.79,-4.06 1.29,-1.35 1.7,-1.76 3.46,-2.46 0,-12.6 -0.63,-26.82 0.91,-37.98 0.49,-3.62 0.98,-4.35 0.98,-8.87 -0.02,-3.65 -0.15,-6.28 0.52,-9.34l1.35 -13.17c0.12,-3.41 1.64,-3.92 1.89,-7.95 0.14,-2.52 0.49,-1.88 0.94,-4.21 0.53,-2.85 1.07,-5.27 1.61,-8.23 0.26,-1.51 0.14,-2.8 0.44,-4.24 0.29,-1.39 0.87,-2.53 1.24,-3.92 0.32,-1.23 0.37,-2.59 0.75,-3.94 1.71,-6.25 4.22,-12.9 5.79,-19.04 0.71,-2.8 1.71,-4.44 3.08,-6.76 1.24,-2.06 2.53,-4.28 2.53,-7.29 -2.64,0.05 -4.42,1.14 -5.95,2.48l-14.88 10.87c-1.14,0.6 -2.02,0.63 -3.03,1.17 -1.13,0.63 -1.27,1.16 -2.27,1.95 -1.65,1.28 -3.95,1.53 -5.68,2.76 -1.69,1.19 -0.23,0.78 -2.42,1.8 -1.14,0.53 -1.75,0.64 -2.9,1.3 -1.98,1.12 -3.65,2.26 -6.42,2.49 -0.19,1.85 0.34,0.91 -1.08,1.73 -2.93,1.43 -5.15,1.14 -9.18,3.17 -2.19,1.1 -2.94,0.62 -4.63,2.4 -0.82,0.88 -12.55,4.12 -14.68,4.83 -11.55,3.79 -26.38,8.23 -38.03,10.28 -12.53,2.22 -24.45,3.57 -37.14,6.28 -5.08,1.08 -11.41,0.87 -16.87,1.28 -5.86,0.46 -8.93,0.57 -14.68,1.53 -6.13,1.03 -13.28,-0.16 -20.23,0.63 -9.09,1.03 -24.43,0.41 -33.85,0.29 -17.55,-0.25 -35.29,-0.95 -52.79,-1.03 0.39,-4.78 3.01,-3.95 6.83,-5.37 1.75,-0.64 2.36,-1.55 3.61,-2.46 1.2,-0.86 2.82,-1.39 4.28,-2.29l11.5 -6.77c1.44,-0.89 2.63,-1.47 2.83,-3.72 -1.39,-0.66 -4.56,-1.34 -6.15,-1.82 -2.23,-0.67 -4.07,-1.34 -6.24,-2.19 -2.71,-1.07 -3.03,-1.95 -5.14,-3.3 -2.33,-1.5 -5.97,-2.37 -7.71,-4.46 -0.8,-0.95 -0.97,-1.54 -1.78,-2.42 -1.99,-2.18 -3.54,-0.63 -5.11,-3.31 -1.39,-2.36 -0.76,-2.98 -3.38,-5.04 -5.72,-4.53 -3.42,-2.78 -5.72,-6.46 -0.91,-1.46 -0.73,-0.46 -2.05,-2.17 -2.19,-3.01 -2.36,-4.46 -5.26,-7.27 -1.64,-1.58 -1.34,-4.13 -3.84,-7.16 -1.49,-1.8 -8.71,-15.18 -10.02,-18.45 -1.37,-3.44 -5.59,-13.14 -7.59,-16.05 -3.6,-5.24 -16.45,-45.35 -17.71,-52.41 -1.75,-9.73 -5.04,-15.95 -5.85,-25.99 -0.41,-5.01 -1.14,-9 -1.48,-14.29l-0.07 -1.02c-0.12,-1.57 -0.59,-2.81 -0.9,-4.25 -0.3,-1.43 -0.69,-3.58 -0.85,-4.78 -0.77,-5.89 -0.59,-30.76 -0.59,-37.37 0,-3.01 1.43,-3.31 1.43,-6.53 0.02,-7.37 2.82,-29.78 4.92,-36.76 0.76,-2.53 0.37,-5.51 1.1,-7.33l2.37 -6.08c2.02,-0.96 9.46,-1.27 12.63,-1.41 3.91,-0.19 8.61,-1.25 12.32,-1.75 8.25,-0.73 13.65,0.87 22.4,-0.73 12.38,-2.28 24.02,0.71 36.3,0.53 14.66,-0.21 31.95,1.55 46.56,3.55 18.67,2.55 39.19,7.37 57.22,12.77 5.65,1.69 9.14,2.7 14.56,4.74 12.64,4.8 18.43,7 29.85,13.61 3.42,1.98 8.23,3.96 10.59,7.18 1.28,1.75 2.42,1.07 4.86,3.68 2.86,3.07 6.29,4.7 7.55,8.46 1.2,3.6 3.38,0.32 3.76,5.58 0.46,0 0.93,0 1.41,0 0,3.54 1.66,2.23 2.9,6.93 1.7,6.27 1.73,3.83 3.17,6.66l0.87 4.28c0.63,3.81 0.75,10.09 2.41,13.53 4.83,-1.13 4.21,-4.94 6.43,-7.61 2.51,-3.01 2.85,-4.19 6.08,-7.98l12.92 -19.87c1.2,-2.19 1.02,-1.17 2.23,-2.46l3.72 -7.06 1.87 0c0,-2.98 0.45,-1.95 2.12,-3.98 2.14,-2.56 6.65,-11.03 9.25,-14.17 1.19,-1.44 1.07,-0.71 2.01,-2.67 0.61,-1.27 -0.07,-0.34 0.8,-1.53l5.01 -7.17c1.31,-1.99 2.46,-3.94 3.85,-5.98 3.87,-5.72 1.43,-2.16 4.24,-5.14l1.25 -2.02c0.46,-0.73 0.08,-0.08 0.57,-0.83 0.69,-1.07 0.98,-2.25 2.03,-3.12 1.62,-1.36 1.35,0.08 2.21,-2.48 1.94,-5.9 1.2,-2.14 3.75,-5.61 0.82,-1.12 1.01,-2.07 2.08,-3.07 2.37,-2.22 1.44,-3.8 3.65,-5.72 2.15,-1.87 6.77,-10.63 8.67,-12.87 0.86,-1.02 0.13,0.19 1.14,-1.21 0.95,-1.3 0.32,-0.64 0.79,-1.55 0.71,-1.41 -0.11,-0.33 1.23,-1.58 2.53,-2.37 2.37,-2.33 3.91,-5.48 1.1,-2.24 1.92,-4.5 4.68,-5.15 0,-8.32 -6.52,-12.77 -11.83,-18.15l-4.33 -3.17c-1.12,-0.69 -1.08,-0.97 -2.14,-1.62l-4.93 -2.56c-3.08,-1.32 -5.34,-2.6 -9.1,-2.6l0 -1.41c-2.08,-0.05 -15.25,-4.3 -21.08,-5.17 -2.22,-0.32 -1.88,-0.71 -3.95,-1.19 -8.26,-1.96 -11.53,-2.73 -20.1,-3.09 -8.29,-0.33 -16.63,-2.78 -24.92,-2.01 -1.87,0.18 -12.22,-1 -15.25,-1.11 -6.36,-0.22 -33.7,-2.49 -37.32,-0.78 -4.91,2.33 -13.52,0.49 -19.58,1.91 -2.96,0.69 -11.31,0.07 -16.46,0.82 -4.15,0.63 -8.43,0.6 -13.12,1.28 -15.1,2.25 -31,4.28 -45.82,7.92 -5.07,1.24 -9.94,1.87 -15.4,3.26 -18.64,4.76 -35.62,9.39 -53.57,16.34 -3.81,1.48 -5.72,1.14 -9.37,3.05 -2.25,1.24 -5.44,1.83 -7.71,2.58 -4.39,1.44 -11.03,5.83 -14.91,6.17 -1.55,-3.2 0.05,-9.09 1.76,-12.28 1.57,-2.89 1.55,-6.27 2.78,-9.39 0.68,-1.73 0.69,-1.05 1.07,-3.14 0.6,-3.28 1.21,-3.23 2.13,-5.83 0.8,-2.28 0.66,-4.56 1.43,-7 0.71,-2.25 1.73,-3.56 2.48,-5.49 0.41,-1.07 0.78,-2.15 1.01,-3.3 1.39,-6.56 -9.91,2.96 -11.3,3.8 -0.36,0.22 -0.86,0.42 -1.21,0.66 -0.12,0.07 -0.44,0.29 -0.56,0.38 -0.08,0.05 -0.19,0.15 -0.25,0.21 -0.07,0.08 -0.18,0.16 -0.25,0.23 -1.87,1.77 -5.81,3.42 -7.41,5.24 -3.53,4.01 -1.25,1.42 -4.47,3.49 -1.98,1.25 -1.75,2.94 -4.35,4.09 -1.98,0.87 -3.01,1.95 -4.89,3.08 -1.53,0.91 -2.66,2.96 -3.94,4.49 -1.8,2.16 -2.9,1.07 -4.88,3.09 -1.68,1.71 -1.69,2.88 -4.15,4.27 -4.35,2.48 -5.38,4.33 -8.7,7.7l-11.95 12.87c-5.28,4.65 -8.27,5.92 -12.32,12.53 -1.99,3.26 -6.42,4.92 -7.95,8.45 -1.27,2.9 -5.58,6.42 -8.04,8.36 -1.87,1.48 -2.58,2.96 -3.53,4.9 -0.6,1.24 -3.3,3.19 -4.38,4.06 -1.39,1.1 -0.75,0.53 -1.77,2 -1.24,1.8 -2.32,1.39 -4.2,2.35 -0.09,0.05 -0.22,0.12 -0.31,0.18l-0.8 0.59c-0.93,0.69 -1.44,1.02 -2.47,1.75 -1.68,1.17 -2.91,2.29 -4.69,3.28 -1.34,0.75 -1.78,0.63 -3.05,1.16 -2.17,0.91 -0.82,0.42 -2.1,2.1 -1.09,1.44 -3.34,2.05 -4.86,3.1 -1.8,1.21 -3.05,3.1 -4.63,3.79 -2.21,0.97 -0.82,-0.19 -2.83,1.4 -3.31,2.59 -5.26,1.39 -5.26,7.39l-0.02 0.02 0.01 -0.14z"/>
   <path class="fil0" d="M1009.61 114.69l65.03 22.11 0 186.61 -65.03 21.76 0 -230.48zm5.24 121.22c1.05,-0.09 0.83,-0.9 0.86,-1.64 0.19,-0.13 0.23,-0.16 0.36,-0.36 0.19,-0.26 0.19,-0.67 0.05,-0.94 -0.36,-0.63 -1.34,-0.8 -2.02,-0.22 -0.48,0.43 -0.56,1.02 -0.14,1.43 0.3,0.3 0.25,0.05 0.22,0.63 0,0.3 -0.05,0.57 0.08,0.78 0.08,0.18 0.32,0.34 0.6,0.31l0 0 -0.02 0.02zm3.97 -10.14l-0.02 1.03 -3.67 -0.2c-1.27,-0.07 -2.39,0.83 -2.41,1.92 -0.02,1.14 1.07,2.05 2.41,2.03l3.61 -0.02 -0.11 6.06c-0.02,0.6 -0.29,1.03 -0.71,1.41 -0.23,0.19 -0.66,0.39 -0.98,0.45l-4.17 0.53c-0.59,0.07 -1.05,-0.16 -1.43,-0.42 -0.36,-0.25 -0.52,-0.73 -0.49,-1.32l0.25 -11.87c0.02,-0.57 0.19,-1.05 0.56,-1.32 0.37,-0.27 0.85,-0.52 1.42,-0.46l4.12 0.39c0.3,0.03 0.5,0.12 0.69,0.23 0.16,0.08 0.38,0.23 0.5,0.37 0.26,0.34 0.44,0.61 0.42,1.16l0 0 0 0.02zm5.12 4.12l-8.73 -0.04c-1.8,0 -2.14,-1.92 -0.63,-2.42 0.18,-0.05 0.41,-0.08 0.64,-0.07l8.77 0.38c0.66,0.03 1.12,0.49 1.12,1.1 0,0.36 -0.19,0.67 -0.48,0.87 -0.05,0.03 -0.12,0.07 -0.18,0.08 -0.15,0.05 -0.3,0.09 -0.5,0.09l-0.02 0zm26.77 -86.7l15.54 4.53 0 43.21 6.42 2.93 -6.42 9.64 0 11.91 6.4 5.4 -12.56 16.56c2.33,1.51 4.13,3.44 5.4,5.81 1.41,2.64 2.12,5.56 2.12,8.84l0 42.45c0,3.26 -0.69,6.42 -2.12,9.44 -1.43,3.08 -3.49,5.81 -6.25,8.22 -2.82,2.44 -6.27,4.26 -10.41,5.45l-28.94 8.31 0 -41.83 -10.29 13.98 0 -14.95 10.29 -16.32 0 -31.87 18.68 -0.23 2.48 -4.25 -8.79 -4.97 -12.51 -0.22 0 -91.17 18.21 5.38 0.43 0.6 12.29 19.66 0 -16.49 0 0.02 0.04 -0.02zm-0.22 40.58l-12.15 -18.46 0 24.82 5.12 -9.57 7.03 3.2 0 0 0 0.01zm-11.75 122.2c1.13,-0.23 2.16,-0.46 3.07,-0.68 4.07,-0.98 6.7,-2.03 8.04,-3.15 1.53,-1.29 2.29,-3.94 2.29,-8.04l0 -37.11c0,-3.51 -0.57,-5.82 -1.7,-6.93l-11.69 15.42 0 40.47 0 0.02z"/>
   <polygon class="fil1" points="1046.9,188.91 1063.77,196.24 1052.93,212.07 1064.65,221.65 1023.73,274.18 1049.96,227.96 1032.07,217.39 "/>
   <path class="fil1" d="M1003.97 114.69l-21.44 8.12 0 17.41c0.15,0.23 0.27,0.46 0.39,0.67 5.44,9.58 7.98,20.05 7.98,31.03l0 118.1c0,10.97 -2.56,21.44 -7.98,30.99 -0.12,0.23 -0.26,0.46 -0.39,0.69l0 14.31 21.44 9.12 0 -230.48 0 0 0 0.02z"/>
   <path class="fil2" d="M1092.91 345.33c-3.8,0 -5.83,-1.68 -6.12,-5.03 -0.03,-0.5 0.23,-0.75 0.79,-0.75l3.08 0c0.39,0 0.66,0.23 0.8,0.71 0.18,0.64 0.66,0.94 1.44,0.94l5.2 0c0.59,0 1,-0.08 1.24,-0.25 0.25,-0.18 0.38,-0.48 0.38,-0.91 0,-0.44 -0.11,-0.75 -0.34,-0.93 -0.23,-0.18 -0.6,-0.3 -1.14,-0.32l-5.85 -0.41c-1.98,-0.15 -3.4,-0.59 -4.24,-1.36 -0.84,-0.75 -1.27,-1.94 -1.27,-3.56 0,-3.51 2.05,-5.27 6.13,-5.27l4.86 0c3.8,0 5.83,1.68 6.11,5.02 0.04,0.5 -0.23,0.75 -0.78,0.75l-3.08 0c-0.39,0 -0.66,-0.23 -0.8,-0.71 -0.18,-0.62 -0.66,-0.94 -1.44,-0.94l-4.81 0c-0.59,0 -1,0.08 -1.25,0.25 -0.25,0.18 -0.37,0.48 -0.37,0.91 0,0.45 0.11,0.75 0.34,0.93 0.23,0.18 0.6,0.29 1.14,0.32l5.85 0.41c1.96,0.13 3.39,0.59 4.22,1.36 0.86,0.78 1.28,1.96 1.28,3.58 0,3.51 -2.05,5.27 -6.12,5.27l-5.26 0 0 -0.02zm19.49 0c-0.51,0 -0.76,-0.25 -0.76,-0.73l0 -12.28 -4.93 0c-0.52,0 -0.79,-0.25 -0.79,-0.73l0 -2.69c0,-0.48 0.27,-0.73 0.79,-0.73l14.53 0c0.52,0 0.78,0.25 0.78,0.73l0 2.69c0,0.49 -0.26,0.73 -0.78,0.73l-4.93 0 0 12.28c0,0.48 -0.27,0.73 -0.79,0.73l-3.08 0 -0.02 0zm17.89 0c-1.99,0 -3.52,-0.54 -4.56,-1.61 -1.06,-1.07 -1.57,-2.49 -1.57,-4.29l0 -10.52c0,-0.48 0.26,-0.73 0.78,-0.73l3.05 0c0.52,0 0.78,0.25 0.78,0.73l0 10.67c0,0.66 0.13,1.11 0.38,1.32 0.25,0.22 0.64,0.32 1.16,0.32l6.02 0c0.52,0 0.89,-0.11 1.16,-0.32 0.25,-0.21 0.37,-0.64 0.37,-1.32l0 -10.67c0,-0.48 0.27,-0.73 0.77,-0.73l3.04 0c0.52,0 0.79,0.25 0.79,0.73l0 10.52c0,1.8 -0.52,3.22 -1.57,4.29 -1.05,1.07 -2.57,1.61 -4.56,1.61l-6.02 0 -0.02 0zm16.31 0c-0.52,0 -0.79,-0.25 -0.79,-0.73l0 -15.7c0,-0.48 0.27,-0.73 0.79,-0.73l11.05 0c4.06,0 6.11,2.14 6.11,6.43l0 4.39c0,4.22 -2.03,6.35 -6.11,6.35l-11.05 0zm3.83 -4.09l6.65 0c0.69,0 1.21,-0.14 1.58,-0.45 0.36,-0.3 0.56,-0.93 0.56,-1.85l0 -4.29c0,-0.96 -0.18,-1.58 -0.52,-1.88 -0.34,-0.31 -0.87,-0.45 -1.61,-0.45l-6.64 0 0 8.94 -0.02 -0.02zm17.04 4.09c-0.52,0 -0.78,-0.25 -0.78,-0.73l0 -15.7c0,-0.48 0.26,-0.73 0.78,-0.73l3.03 0c0.51,0 0.76,0.25 0.76,0.73l0 15.7c0,0.48 -0.25,0.73 -0.76,0.73l-3.03 0zm12.87 0c-2,0 -3.53,-0.54 -4.56,-1.61 -1.05,-1.07 -1.57,-2.49 -1.57,-4.29l0 -5.33c0,-1.82 0.52,-3.27 1.57,-4.33 1.03,-1.07 2.56,-1.61 4.56,-1.61l6.8 0c2,0 3.53,0.53 4.56,1.61 1.03,1.07 1.57,2.51 1.57,4.33l0 5.33c0,1.8 -0.52,3.22 -1.57,4.29 -1.05,1.07 -2.56,1.61 -4.56,1.61l-6.8 0zm0 -4.14l6.8 0c0.52,0 0.9,-0.11 1.16,-0.32 0.25,-0.22 0.38,-0.64 0.38,-1.32l0 -5.61c0,-0.69 -0.13,-1.14 -0.36,-1.36 -0.22,-0.19 -0.62,-0.3 -1.17,-0.3l-6.8 0c-0.56,0 -0.95,0.11 -1.18,0.3 -0.23,0.2 -0.36,0.66 -0.36,1.36l0 5.61c0,0.66 0.12,1.1 0.37,1.32 0.25,0.21 0.64,0.32 1.17,0.32z"/>
   <path class="fil3" d="M980.07 169.02l0 124.09c0,9.55 -2.23,18.21 -6.66,26.04 -4.46,7.85 -10.86,14.09 -19.2,18.76 -8.41,4.66 -18.44,7 -30.2,7l-74.03 0 0 -227.67 74.03 0c11.76,0 21.79,2.33 30.2,7 8.36,4.67 14.76,10.9 19.2,18.71 4.46,7.86 6.66,16.54 6.66,26.09l0 -0.04zm-83.42 137.42c2.98,0.11 5.69,0.16 8.13,0.16 11.01,0 18.34,-1.14 22.08,-3.37 4.35,-2.55 6.5,-9.44 6.5,-20.78l0 -102.83c0,-11.34 -2.17,-18.29 -6.5,-20.83 -3.75,-2.22 -11.07,-3.31 -22.08,-3.31 -2.44,0 -5.15,0.05 -8.13,0.16l0 150.76 0 0 0 0.04z"/>
   <path class="fil1" d="M1152.9 322.98l-13.58 -48.97c-4.74,3.28 -9.28,6.35 -13.58,9.09l0 39.49 -40.35 0 0 -186.05 58.47 0c10.26,0 18.97,1.91 26.14,5.72 7.17,3.81 12.69,8.91 16.54,15.29 3.85,6.43 5.75,13.52 5.75,21.31l0 55.17c-5.38,4.83 -11.48,9.89 -18.26,15.07l20.62 73.89 -41.74 0 -0.02 -0.02zm-27.18 -155.02l0 73.35c9.89,-5.81 19.64,-13.17 29.24,-22.06l0 -19.99c0,-7.63 -0.14,-13.56 -0.46,-17.82 -0.32,-4.21 -1.35,-7.31 -3.14,-9.27 -1.83,-1.94 -4.74,-3.19 -8.76,-3.72 -3.37,-0.3 -7.82,-0.48 -13.45,-0.48l-3.42 0 0 0 -0.01 0z"/>
  </g>
 </g>
</svg>
